Source-HROTd_VROTx_SLENx_SANGx.ufo
<glyph name="comma" format="2">
  <advance width="269"/>
  <unicode hex="002C"/>
  <outline>
    <contour>
      <point x="198" y="-41" type="curve" smooth="yes"/>
      <point x="237" y="-26"/>
      <point x="244" y="-9"/>
      <point x="204" y="18" type="curve" smooth="yes"/>
      <point x="148" y="55"/>
      <point x="198" y="130"/>
      <point x="254" y="92" type="curve" smooth="yes"/>
      <point x="359" y="22"/>
      <point x="334" y="-83"/>
      <point x="232" y="-125" type="curve" smooth="yes"/>
      <point x="170" y="-150"/>
      <point x="135" y="-67"/>
    </contour>
  </outline>
</glyph>
<glyph name="slash" format="2">
  <advance width="490"/>
  <unicode hex="002F"/>
  <outline>
    <contour>
      <point x="419" y="570" type="curve" smooth="yes"/>
      <point x="139" y="-31" type="line" smooth="yes"/>
      <point x="110" y="-92"/>
      <point x="29" y="-54"/>
      <point x="57" y="7" type="curve" smooth="yes"/>
      <point x="337" y="608" type="line" smooth="yes"/>
      <point x="366" y="669"/>
      <point x="447" y="631"/>
    </contour>
  </outline>
</glyph>
<glyph name="three" format="2">
  <advance width="488"/>
  <unicode hex="0033"/>
  <outline>
    <contour>
      <point x="196" y="96" type="curve" smooth="yes"/>
      <point x="244" y="79"/>
      <point x="298" y="67"/>
      <point x="347" y="64" type="curve" smooth="yes"/>
      <point x="405" y="61"/>
      <point x="493" y="74"/>
      <point x="479" y="120" type="curve" smooth="yes"/>
      <point x="456" y="193"/>
      <point x="341" y="244"/>
      <point x="287" y="251" type="curve" smooth="yes"/>
      <point x="251" y="257"/>
      <point x="243" y="257"/>
      <point x="222" y="257" type="curve" smooth="yes"/>
      <point x="217" y="257"/>
      <point x="324" y="323"/>
      <point x="332" y="325" type="curve" smooth="yes"/>
      <point x="357" y="334"/>
      <point x="366" y="342"/>
      <point x="384" y="356" type="curve" smooth="yes"/>
      <point x="397" y="367"/>
      <point x="408" y="384"/>
      <point x="417" y="415" type="curve" smooth="yes"/>
      <point x="426" y="448"/>
      <point x="401" y="452"/>
      <point x="371" y="444" type="curve" smooth="yes"/>
      <point x="310" y="427"/>
      <point x="275" y="392"/>
      <point x="211" y="392" type="curve" smooth="yes"/>
      <point x="144" y="392"/>
      <point x="144" y="482"/>
      <point x="211" y="482" type="curve" smooth="yes"/>
      <point x="255" y="482"/>
      <point x="259" y="506"/>
      <point x="347" y="530" type="curve" smooth="yes"/>
      <point x="444" y="556"/>
      <point x="532" y="498"/>
      <point x="503" y="391" type="curve" smooth="yes"/>
      <point x="488" y="337"/>
      <point x="465" y="307"/>
      <point x="440" y="286" type="curve" smooth="yes"/>
      <point x="416" y="266"/>
      <point x="399" y="254"/>
      <point x="362" y="241" type="curve" smooth="yes"/>
      <point x="127" y="159"/>
      <point x="145" y="351"/>
      <point x="222" y="347" type="curve"/>
      <point x="247" y="347"/>
      <point x="259" y="347"/>
      <point x="301" y="341" type="curve" smooth="yes"/>
      <point x="383" y="328"/>
      <point x="529" y="260"/>
      <point x="565" y="146" type="curve" smooth="yes"/>
      <point x="601" y="32"/>
      <point x="486" y="-33"/>
      <point x="343" y="-26" type="curve" smooth="yes"/>
      <point x="284" y="-23"/>
      <point x="222" y="-9"/>
      <point x="166" y="12" type="curve" smooth="yes"/>
      <point x="102" y="35"/>
      <point x="133" y="119"/>
    </contour>
  </outline>
</glyph>
<glyph name="four" format="2">
  <advance width="525"/>
  <unicode hex="0034"/>
  <outline>
    <contour>
      <point x="502" y="159" type="curve" smooth="yes"/>
      <point x="411" y="159"/>
      <point x="319" y="159"/>
      <point x="258" y="159" type="curve" smooth="yes"/>
      <point x="209" y="159"/>
      <point x="179" y="159"/>
      <point x="160" y="159" type="curve" smooth="yes"/>
      <point x="155" y="159"/>
      <point x="177" y="226"/>
      <point x="180" y="229" type="curve" smooth="yes"/>
      <point x="182" y="231"/>
      <point x="190" y="272"/>
      <point x="191" y="276" type="curve" smooth="yes"/>
      <point x="200" y="319"/>
      <point x="212" y="377"/>
      <point x="222" y="411" type="curve" smooth="yes"/>
      <point x="231" y="448"/>
      <point x="240" y="476"/>
      <point x="261" y="498" type="curve" smooth="yes"/>
      <point x="343" y="583"/>
      <point x="535" y="502"/>
      <point x="535" y="395" type="curve" smooth="yes"/>
      <point x="535" y="379"/>
      <point x="535" y="360"/>
      <point x="535" y="343" type="curve" smooth="yes"/>
      <point x="535" y="244"/>
      <point x="535" y="134"/>
      <point x="535" y="102" type="curve" smooth="yes"/>
      <point x="535" y="43"/>
      <point x="514" y="13"/>
      <point x="476" y="-2" type="curve" smooth="yes"/>
      <point x="414" y="-27"/>
      <point x="381" y="57"/>
      <point x="444" y="82" type="curve" smooth="yes"/>
      <point x="445" y="83"/>
      <point x="445" y="99"/>
      <point x="445" y="102" type="curve" smooth="yes"/>
      <point x="445" y="150"/>
      <point x="445" y="277"/>
      <point x="445" y="343" type="curve" smooth="yes"/>
      <point x="445" y="369"/>
      <point x="445" y="384"/>
      <point x="445" y="395" type="curve" smooth="yes"/>
      <point x="445" y="424"/>
      <point x="348" y="458"/>
      <point x="327" y="436" type="curve" smooth="yes"/>
      <point x="319" y="428"/>
      <point x="312" y="402"/>
      <point x="308" y="387" type="curve" smooth="yes"/>
      <point x="300" y="355"/>
      <point x="288" y="298"/>
      <point x="279" y="256" type="curve" smooth="yes"/>
      <point x="269" y="214"/>
      <point x="268" y="192"/>
      <point x="248" y="169" type="curve" smooth="yes"/>
      <point x="151" y="60"/>
      <point x="-2" y="249"/>
      <point x="160" y="249" type="curve" smooth="yes"/>
      <point x="188" y="249"/>
      <point x="225" y="249"/>
      <point x="258" y="249" type="curve" smooth="yes"/>
      <point x="349" y="249"/>
      <point x="441" y="249"/>
      <point x="502" y="249" type="curve" smooth="yes"/>
      <point x="570" y="249"/>
      <point x="570" y="159"/>
    </contour>
  </outline>
</glyph>
<glyph name="seven" format="2">
  <advance width="483"/>
  <unicode hex="0037"/>
  <outline>
    <contour>
      <point x="178" y="504" type="curve" smooth="yes"/>
      <point x="220" y="492"/>
      <point x="254" y="485"/>
      <point x="287" y="485" type="curve" smooth="yes"/>
      <point x="358" y="485"/>
      <point x="380" y="485"/>
      <point x="426" y="485" type="curve" smooth="yes"/>
      <point x="541" y="485"/>
      <point x="484" y="550"/>
      <point x="481" y="387" type="curve" smooth="yes"/>
      <point x="478" y="268"/>
      <point x="436" y="167"/>
      <point x="376" y="69" type="curve" smooth="yes"/>
      <point x="355" y="36"/>
      <point x="322" y="12"/>
      <point x="275" y="-3" type="curve" smooth="yes"/>
      <point x="211" y="-23"/>
      <point x="184" y="63"/>
      <point x="249" y="83" type="curve" smooth="yes"/>
      <point x="272" y="90"/>
      <point x="289" y="101"/>
      <point x="300" y="117" type="curve" smooth="yes"/>
      <point x="351" y="201"/>
      <point x="388" y="287"/>
      <point x="391" y="389" type="curve" smooth="yes"/>
      <point x="391" y="397"/>
      <point x="432" y="395"/>
      <point x="426" y="395" type="curve" smooth="yes"/>
      <point x="358" y="395"/>
      <point x="334" y="395"/>
      <point x="287" y="395" type="curve" smooth="yes"/>
      <point x="246" y="395"/>
      <point x="204" y="402"/>
      <point x="152" y="418" type="curve" smooth="yes"/>
      <point x="87" y="437"/>
      <point x="113" y="523"/>
    </contour>
  </outline>
</glyph>
<glyph name="eight" format="2">
  <advance width="535"/>
  <unicode hex="0038"/>
  <outline>
    <contour>
      <point x="346" y="-43" type="curve" smooth="yes"/>
      <point x="218" y="0"/>
      <point x="165" y="59"/>
      <point x="155" y="135" type="curve" smooth="yes"/>
      <point x="142" y="241"/>
      <point x="166" y="353"/>
      <point x="299" y="353" type="curve" smooth="yes"/>
      <point x="328" y="353"/>
      <point x="487" y="353"/>
      <point x="494" y="367" type="curve" smooth="yes"/>
      <point x="500" y="380"/>
      <point x="414" y="401"/>
      <point x="389" y="401" type="curve" smooth="yes"/>
      <point x="335" y="401"/>
      <point x="274" y="382"/>
      <point x="276" y="345" type="curve" smooth="yes"/>
      <point x="279" y="302"/>
      <point x="359" y="268"/>
      <point x="418" y="268" type="curve" smooth="yes"/>
      <point x="553" y="268"/>
      <point x="614" y="226"/>
      <point x="610" y="132" type="curve" smooth="yes"/>
      <point x="607" y="62"/>
      <point x="558" y="8"/>
      <point x="502" y="-36" type="curve" smooth="yes"/>
      <point x="449" y="-78"/>
      <point x="393" y="-8"/>
      <point x="446" y="34" type="curve" smooth="yes"/>
      <point x="477" y="59"/>
      <point x="519" y="97"/>
      <point x="520" y="136" type="curve" smooth="yes"/>
      <point x="522" y="177"/>
      <point x="478" y="178"/>
      <point x="418" y="178" type="curve" smooth="yes"/>
      <point x="297" y="178"/>
      <point x="191" y="251"/>
      <point x="186" y="339" type="curve" smooth="yes"/>
      <point x="181" y="425"/>
      <point x="263" y="491"/>
      <point x="389" y="491" type="curve" smooth="yes"/>
      <point x="530" y="491"/>
      <point x="609" y="403"/>
      <point x="576" y="331" type="curve" smooth="yes"/>
      <point x="545" y="262"/>
      <point x="438" y="263"/>
      <point x="299" y="263" type="curve" smooth="yes"/>
      <point x="233" y="263"/>
      <point x="238" y="199"/>
      <point x="245" y="147" type="curve" smooth="yes"/>
      <point x="251" y="100"/>
      <point x="296" y="69"/>
      <point x="374" y="43" type="curve" smooth="yes"/>
      <point x="438" y="21"/>
      <point x="410" y="-64"/>
    </contour>
  </outline>
</glyph>
<glyph name="nine" format="2">
  <advance width="534"/>
  <unicode hex="0039"/>
  <outline>
    <contour>
      <point x="464" y="312" type="curve" smooth="yes"/>
      <point x="458" y="244"/>
      <point x="404" y="192"/>
      <point x="328" y="182" type="curve" smooth="yes"/>
      <point x="214" y="167"/>
      <point x="153" y="216"/>
      <point x="153" y="315" type="curve" smooth="yes"/>
      <point x="153" y="411"/>
      <point x="236" y="490"/>
      <point x="377" y="490" type="curve" smooth="yes"/>
      <point x="495" y="490"/>
      <point x="614" y="419"/>
      <point x="614" y="249" type="curve" smooth="yes"/>
      <point x="614" y="55"/>
      <point x="484" y="-35"/>
      <point x="338" y="-28" type="curve" smooth="yes"/>
      <point x="292" y="-26"/>
      <point x="238" y="-10"/>
      <point x="178" y="21" type="curve" smooth="yes"/>
      <point x="117" y="52"/>
      <point x="158" y="132"/>
      <point x="218" y="101" type="curve" smooth="yes"/>
      <point x="264" y="78"/>
      <point x="308" y="64"/>
      <point x="342" y="62" type="curve" smooth="yes"/>
      <point x="444" y="57"/>
      <point x="524" y="113"/>
      <point x="524" y="249" type="curve" smooth="yes"/>
      <point x="524" y="361"/>
      <point x="455" y="400"/>
      <point x="377" y="400" type="curve" smooth="yes"/>
      <point x="299" y="400"/>
      <point x="243" y="368"/>
      <point x="243" y="315" type="curve" smooth="yes"/>
      <point x="243" y="269"/>
      <point x="264" y="265"/>
      <point x="316" y="272" type="curve" smooth="yes"/>
      <point x="347" y="276"/>
      <point x="372" y="292"/>
      <point x="374" y="320" type="curve" smooth="yes"/>
      <point x="380" y="387"/>
      <point x="469" y="380"/>
    </contour>
  </outline>
</glyph>
<glyph name="equal" format="2">
  <advance width="490"/>
  <unicode hex="003D"/>
  <outline>
    <contour>
      <point x="553" y="256" type="curve" smooth="yes"/>
      <point x="486" y="215"/>
      <point x="371" y="209"/>
      <point x="190" y="250" type="curve" smooth="yes"/>
      <point x="124" y="265"/>
      <point x="144" y="353"/>
      <point x="210" y="338" type="curve" smooth="yes"/>
      <point x="345" y="307"/>
      <point x="456" y="302"/>
      <point x="507" y="332" type="curve" smooth="yes"/>
      <point x="564" y="368"/>
      <point x="611" y="291"/>
    </contour>
    <contour>
      <point x="553" y="86" type="curve" smooth="yes"/>
      <point x="486" y="45"/>
      <point x="371" y="39"/>
      <point x="190" y="80" type="curve" smooth="yes"/>
      <point x="124" y="95"/>
      <point x="144" y="183"/>
      <point x="210" y="168" type="curve" smooth="yes"/>
      <point x="345" y="137"/>
      <point x="456" y="132"/>
      <point x="507" y="162" type="curve" smooth="yes"/>
      <point x="564" y="198"/>
      <point x="611" y="121"/>
    </contour>
  </outline>
</glyph>
<glyph name="A" format="2">
  <advance width="651"/>
  <unicode hex="0041"/>
  <outline>
    <contour>
      <point x="172" y="72" type="curve" smooth="yes"/>
      <point x="197" y="82"/>
      <point x="212" y="91"/>
      <point x="225" y="109" type="curve"/>
      <point x="252" y="150"/>
      <point x="268" y="184"/>
      <point x="342" y="185" type="curve" smooth="yes"/>
      <point x="387" y="186"/>
      <point x="416" y="186"/>
      <point x="468" y="186" type="curve" smooth="yes"/>
      <point x="474" y="186"/>
      <point x="347" y="185"/>
      <point x="342" y="185" type="curve" smooth="yes"/>
      <point x="297" y="185"/>
      <point x="283" y="185"/>
      <point x="266" y="185" type="curve" smooth="yes"/>
      <point x="116" y="185"/>
      <point x="164" y="229"/>
      <point x="263" y="297" type="curve" smooth="yes"/>
      <point x="294" y="319"/>
      <point x="264" y="377"/>
      <point x="300" y="453" type="curve" smooth="yes"/>
      <point x="347" y="552"/>
      <point x="491" y="519"/>
      <point x="538" y="420" type="curve" smooth="yes"/>
      <point x="580" y="333"/>
      <point x="645" y="200"/>
      <point x="683" y="123" type="curve" smooth="yes"/>
      <point x="709" y="70"/>
      <point x="726" y="44"/>
      <point x="711" y="11" type="curve" smooth="yes"/>
      <point x="683" y="-50"/>
      <point x="601" y="-12"/>
      <point x="629" y="49" type="curve" smooth="yes"/>
      <point x="630" y="50"/>
      <point x="603" y="82"/>
      <point x="603" y="83" type="curve" smooth="yes"/>
      <point x="565" y="160"/>
      <point x="498" y="293"/>
      <point x="456" y="382" type="curve" smooth="yes"/>
      <point x="444" y="407"/>
      <point x="394" y="440"/>
      <point x="382" y="415" type="curve" smooth="yes"/>
      <point x="365" y="379"/>
      <point x="382" y="270"/>
      <point x="313" y="223" type="curve" smooth="yes"/>
      <point x="309" y="220"/>
      <point x="260" y="275"/>
      <point x="266" y="275" type="curve" smooth="yes"/>
      <point x="292" y="275"/>
      <point x="312" y="275"/>
      <point x="342" y="275" type="curve" smooth="yes"/>
      <point x="488" y="275"/>
      <point x="624" y="96"/>
      <point x="468" y="96" type="curve" smooth="yes"/>
      <point x="416" y="96"/>
      <point x="389" y="96"/>
      <point x="344" y="95" type="curve" smooth="yes"/>
      <point x="313" y="94"/>
      <point x="311" y="76"/>
      <point x="299" y="57" type="curve" smooth="yes"/>
      <point x="276" y="25"/>
      <point x="249" y="6"/>
      <point x="206" y="-12" type="curve" smooth="yes"/>
      <point x="144" y="-37"/>
      <point x="109" y="46"/>
    </contour>
  </outline>
</glyph>
<glyph name="E" format="2">
  <advance width="523"/>
  <unicode hex="0045"/>
  <outline>
    <contour>
      <point x="546" y="431" type="curve" smooth="yes"/>
      <point x="518" y="399"/>
      <point x="479" y="395"/>
      <point x="414" y="395" type="curve" smooth="yes"/>
      <point x="370" y="395"/>
      <point x="357" y="395"/>
      <point x="326" y="395" type="curve" smooth="yes"/>
      <point x="296" y="395"/>
      <point x="290" y="396"/>
      <point x="290" y="376" type="curve" smooth="yes"/>
      <point x="290" y="319"/>
      <point x="255" y="283"/>
      <point x="212" y="276" type="curve" smooth="yes"/>
      <point x="112" y="261"/>
      <point x="80" y="368"/>
      <point x="189" y="368" type="curve" smooth="yes"/>
      <point x="243" y="368"/>
      <point x="298" y="368"/>
      <point x="339" y="368" type="curve" smooth="yes"/>
      <point x="498" y="368"/>
      <point x="618" y="193"/>
      <point x="459" y="193" type="curve" smooth="yes"/>
      <point x="405" y="193"/>
      <point x="353" y="193"/>
      <point x="310" y="193" type="curve" smooth="yes"/>
      <point x="306" y="193"/>
      <point x="290" y="203"/>
      <point x="290" y="201" type="curve" smooth="yes"/>
      <point x="290" y="151"/>
      <point x="290" y="98"/>
      <point x="290" y="77" type="curve" smooth="yes"/>
      <point x="290" y="66"/>
      <point x="310" y="68"/>
      <point x="324" y="68" type="curve" smooth="yes"/>
      <point x="361" y="68"/>
      <point x="374" y="68"/>
      <point x="408" y="68" type="curve" smooth="yes"/>
      <point x="429" y="68"/>
      <point x="470" y="67"/>
      <point x="485" y="79" type="curve" smooth="yes"/>
      <point x="537" y="121"/>
      <point x="594" y="51"/>
      <point x="541" y="9" type="curve" smooth="yes"/>
      <point x="505" y="-20"/>
      <point x="460" y="-22"/>
      <point x="408" y="-22" type="curve" smooth="yes"/>
      <point x="357" y="-22"/>
      <point x="349" y="-22"/>
      <point x="324" y="-22" type="curve" smooth="yes"/>
      <point x="239" y="-22"/>
      <point x="200" y="11"/>
      <point x="200" y="77" type="curve" smooth="yes"/>
      <point x="200" y="109"/>
      <point x="200" y="167"/>
      <point x="200" y="201" type="curve" smooth="yes"/>
      <point x="200" y="247"/>
      <point x="227" y="283"/>
      <point x="310" y="283" type="curve" smooth="yes"/>
      <point x="373" y="283"/>
      <point x="423" y="283"/>
      <point x="459" y="283" type="curve" smooth="yes"/>
      <point x="465" y="283"/>
      <point x="345" y="278"/>
      <point x="339" y="278" type="curve" smooth="yes"/>
      <point x="278" y="278"/>
      <point x="225" y="278"/>
      <point x="189" y="278" type="curve" smooth="yes"/>
      <point x="186" y="278"/>
      <point x="196" y="364"/>
      <point x="198" y="364" type="curve" smooth="yes"/>
      <point x="199" y="365"/>
      <point x="200" y="374"/>
      <point x="200" y="376" type="curve" smooth="yes"/>
      <point x="200" y="442"/>
      <point x="230" y="485"/>
      <point x="326" y="485" type="curve" smooth="yes"/>
      <point x="372" y="485"/>
      <point x="385" y="485"/>
      <point x="414" y="485" type="curve" smooth="yes"/>
      <point x="427" y="485"/>
      <point x="474" y="485"/>
      <point x="480" y="491" type="curve" smooth="yes"/>
      <point x="525" y="541"/>
      <point x="592" y="481"/>
    </contour>
  </outline>
</glyph>
<glyph name="I" format="2">
  <advance width="270"/>
  <unicode hex="0049"/>
  <outline>
    <contour>
      <point x="199" y="58" type="curve" smooth="yes"/>
      <point x="208" y="70"/>
      <point x="210" y="91"/>
      <point x="210" y="109" type="curve" smooth="yes"/>
      <point x="210" y="209"/>
      <point x="210" y="280"/>
      <point x="210" y="347" type="curve" smooth="yes"/>
      <point x="210" y="371"/>
      <point x="207" y="405"/>
      <point x="193" y="438" type="curve" smooth="yes"/>
      <point x="168" y="501"/>
      <point x="252" y="534"/>
      <point x="277" y="472" type="curve" smooth="yes"/>
      <point x="295" y="425"/>
      <point x="300" y="381"/>
      <point x="300" y="347" type="curve" smooth="yes"/>
      <point x="300" y="247"/>
      <point x="300" y="176"/>
      <point x="300" y="109" type="curve" smooth="yes"/>
      <point x="300" y="68"/>
      <point x="292" y="32"/>
      <point x="271" y="4" type="curve" smooth="yes"/>
      <point x="231" y="-50"/>
      <point x="159" y="4"/>
    </contour>
  </outline>
</glyph>
<glyph name="J" format="2">
  <advance width="448"/>
  <unicode hex="004A"/>
  <outline>
    <contour>
      <point x="187" y="93" type="curve" smooth="yes"/>
      <point x="237" y="72"/>
      <point x="277.0" y="62.0"/>
      <point x="309" y="62" type="curve" smooth="yes"/>
      <point x="371" y="61"/>
      <point x="407" y="83"/>
      <point x="407" y="133" type="curve" smooth="yes"/>
      <point x="407" y="216"/>
      <point x="407" y="262"/>
      <point x="407" y="318" type="curve" smooth="yes"/>
      <point x="407" y="354"/>
      <point x="402" y="398"/>
      <point x="381" y="443" type="curve" smooth="yes"/>
      <point x="353" y="504"/>
      <point x="435" y="542"/>
      <point x="463" y="481" type="curve" smooth="yes"/>
      <point x="490" y="422"/>
      <point x="497" y="364"/>
      <point x="497" y="318" type="curve" smooth="yes"/>
      <point x="497" y="234"/>
      <point x="497" y="189"/>
      <point x="497" y="133" type="curve" smooth="yes"/>
      <point x="497" y="36"/>
      <point x="427" y="-31"/>
      <point x="308" y="-28" type="curve"/>
      <point x="267" y="-28"/>
      <point x="217" y="-18"/>
      <point x="151" y="11" type="curve" smooth="yes"/>
      <point x="89" y="37"/>
      <point x="125" y="120"/>
    </contour>
  </outline>
</glyph>
<glyph name="K" format="2">
  <advance width="591"/>
  <unicode hex="004B"/>
  <outline>
    <contour>
      <point x="266" y="473" type="curve" smooth="yes"/>
      <point x="289" y="421"/>
      <point x="290" y="384"/>
      <point x="290" y="348" type="curve" smooth="yes"/>
      <point x="290" y="243"/>
      <point x="290" y="161"/>
      <point x="290" y="92" type="curve" smooth="yes"/>
      <point x="290" y="45"/>
      <point x="273" y="8"/>
      <point x="237" y="-7" type="curve" smooth="yes"/>
      <point x="175" y="-34"/>
      <point x="140" y="49"/>
      <point x="203" y="75" type="curve" smooth="yes"/>
      <point x="204" y="76"/>
      <point x="200" y="90"/>
      <point x="200" y="92" type="curve" smooth="yes"/>
      <point x="200" y="196"/>
      <point x="200" y="278"/>
      <point x="200" y="348" type="curve" smooth="yes"/>
      <point x="200" y="374"/>
      <point x="201" y="399"/>
      <point x="184" y="437" type="curve" smooth="yes"/>
      <point x="156" y="498"/>
      <point x="239" y="535"/>
    </contour>
    <contour>
      <point x="647" y="434" type="curve" smooth="yes"/>
      <point x="622" y="385"/>
      <point x="580" y="349"/>
      <point x="525" y="322" type="curve" smooth="yes"/>
      <point x="483" y="301"/>
      <point x="390" y="262"/>
      <point x="325" y="257" type="curve" smooth="yes"/>
      <point x="317" y="257"/>
      <point x="350" y="262"/>
      <point x="357" y="258" type="curve" smooth="yes"/>
      <point x="438" y="203"/>
      <point x="583" y="106"/>
      <point x="659" y="54" type="curve" smooth="yes"/>
      <point x="714" y="16"/>
      <point x="663" y="-58"/>
      <point x="607" y="-20" type="curve" smooth="yes"/>
      <point x="533" y="32"/>
      <point x="388" y="129"/>
      <point x="307" y="182" type="curve" smooth="yes"/>
      <point x="172" y="271"/>
      <point x="166" y="337"/>
      <point x="319" y="347" type="curve" smooth="yes"/>
      <point x="368" y="350"/>
      <point x="453" y="387"/>
      <point x="485" y="402" type="curve" smooth="yes"/>
      <point x="521" y="421"/>
      <point x="550" y="443"/>
      <point x="567" y="476" type="curve" smooth="yes"/>
      <point x="598" y="536"/>
      <point x="678" y="495"/>
    </contour>
  </outline>
</glyph>
<glyph name="L" format="2">
  <advance width="498"/>
  <unicode hex="004C"/>
  <outline>
    <contour>
      <point x="533" y="-25" type="curve" smooth="yes"/>
      <point x="467" y="-25"/>
      <point x="356" y="11"/>
      <point x="290" y="11" type="curve" smooth="yes"/>
      <point x="153" y="11"/>
      <point x="200" y="6"/>
      <point x="200" y="132" type="curve" smooth="yes"/>
      <point x="200" y="223"/>
      <point x="200" y="295"/>
      <point x="200" y="356" type="curve" smooth="yes"/>
      <point x="200" y="379"/>
      <point x="201" y="401"/>
      <point x="184" y="436" type="curve" smooth="yes"/>
      <point x="155" y="497"/>
      <point x="237" y="535"/>
      <point x="266" y="474" type="curve" smooth="yes"/>
      <point x="289" y="425"/>
      <point x="290" y="389"/>
      <point x="290" y="356" type="curve" smooth="yes"/>
      <point x="290" y="265"/>
      <point x="290" y="193"/>
      <point x="290" y="132" type="curve" smooth="yes"/>
      <point x="290" y="125"/>
      <point x="283" y="101"/>
      <point x="290" y="101" type="curve" smooth="yes"/>
      <point x="370" y="101"/>
      <point x="479" y="65"/>
      <point x="533" y="65" type="curve" smooth="yes"/>
      <point x="601" y="65"/>
      <point x="601" y="-25"/>
    </contour>
  </outline>
</glyph>
<glyph name="M" format="2">
  <advance width="808"/>
  <unicode hex="004D"/>
  <outline>
    <contour>
      <point x="747" y="77" type="curve" smooth="yes"/>
      <point x="749" y="78"/>
      <point x="748" y="107"/>
      <point x="748" y="109" type="curve" smooth="yes"/>
      <point x="748" y="142"/>
      <point x="707" y="223"/>
      <point x="685" y="273" type="curve" smooth="yes"/>
      <point x="658" y="332"/>
      <point x="649" y="371"/>
      <point x="638" y="443" type="curve" smooth="yes"/>
      <point x="604" y="651"/>
      <point x="850" y="532"/>
      <point x="749" y="343" type="curve" smooth="yes"/>
      <point x="727" y="302"/>
      <point x="704" y="259"/>
      <point x="682" y="216" type="curve" smooth="yes"/>
      <point x="655" y="163"/>
      <point x="618" y="122"/>
      <point x="583" y="81" type="curve" smooth="yes"/>
      <point x="501" y="-13"/>
      <point x="417" y="17"/>
      <point x="340" y="144" type="curve" smooth="yes"/>
      <point x="309" y="195"/>
      <point x="279" y="248"/>
      <point x="251" y="298" type="curve" smooth="yes"/>
      <point x="225" y="343"/>
      <point x="202" y="386"/>
      <point x="179" y="428" type="curve" smooth="yes"/>
      <point x="162" y="460"/>
      <point x="291" y="720"/>
      <point x="291" y="363" type="curve" smooth="yes"/>
      <point x="291" y="312"/>
      <point x="291" y="271"/>
      <point x="291" y="236" type="curve" smooth="yes"/>
      <point x="291" y="190"/>
      <point x="291" y="143"/>
      <point x="290" y="97" type="curve"/>
      <point x="290" y="55"/>
      <point x="273" y="20"/>
      <point x="240" y="0" type="curve" smooth="yes"/>
      <point x="182" y="-34"/>
      <point x="136" y="43"/>
      <point x="194" y="78" type="curve" smooth="yes"/>
      <point x="199" y="81"/>
      <point x="200" y="91"/>
      <point x="200" y="99" type="curve" smooth="yes"/>
      <point x="201" y="145"/>
      <point x="201" y="190"/>
      <point x="201" y="236" type="curve" smooth="yes"/>
      <point x="201" y="288"/>
      <point x="201" y="329"/>
      <point x="201" y="363" type="curve" smooth="yes"/>
      <point x="201" y="409"/>
      <point x="121" y="727"/>
      <point x="259" y="470" type="curve" smooth="yes"/>
      <point x="280" y="430"/>
      <point x="303" y="387"/>
      <point x="329" y="342" type="curve" smooth="yes"/>
      <point x="357" y="292"/>
      <point x="387" y="241"/>
      <point x="418" y="190" type="curve" smooth="yes"/>
      <point x="454" y="130"/>
      <point x="476" y="95"/>
      <point x="515" y="139" type="curve" smooth="yes"/>
      <point x="544" y="174"/>
      <point x="579" y="213"/>
      <point x="602" y="256" type="curve" smooth="yes"/>
      <point x="624" y="301"/>
      <point x="647" y="344"/>
      <point x="669" y="385" type="curve" smooth="yes"/>
      <point x="674" y="394"/>
      <point x="725" y="466"/>
      <point x="726" y="457" type="curve" smooth="yes"/>
      <point x="737" y="395"/>
      <point x="744" y="362"/>
      <point x="767" y="309" type="curve" smooth="yes"/>
      <point x="804" y="227"/>
      <point x="838" y="163"/>
      <point x="838" y="109" type="curve" smooth="yes"/>
      <point x="838" y="62"/>
      <point x="833" y="27"/>
      <point x="799" y="3" type="curve" smooth="yes"/>
      <point x="744" y="-36"/>
      <point x="692" y="38"/>
    </contour>
  </outline>
</glyph>
<glyph name="O" format="2">
  <advance width="732"/>
  <unicode hex="004F"/>
  <outline>
    <contour>
      <point x="-870.9623807319771" y="-3.1439366808312883" type="curve" smooth="yes"/>
      <point x="-900.3468316704386" y="-13.533550207928455"/>
      <point x="-931.3840487744194" y="-12.34355263138518"/>
      <point x="-971.1206951382654" y="5.17861544898723" type="curve" smooth="yes"/>
      <point x="-1052.5680548417035" y="41.09343104159464"/>
      <point x="-1118.979179023717" y="130.8263294717185"/>
      <point x="-1118.9963983931416" y="229.48604936411564" type="curve" smooth="yes"/>
      <point x="-1119.022282779591" y="377.7926600009081"/>
      <point x="-988.0966533732402" y="489.45436482630055"/>
      <point x="-796.0339209906667" y="489.45436482630055" type="curve" smooth="yes"/>
      <point x="-605.1494875797652" y="489.45436482630055"/>
      <point x="-477.0221471399084" y="376.9751847580322"/>
      <point x="-476.9964081713605" y="229.50175732706455" type="curve" smooth="yes"/>
      <point x="-476.97955288487725" y="132.92807904053623"/>
      <point x="-518.8862282983292" y="43.20136793394518"/>
      <point x="-621.9641032444031" y="6.755561461952453" type="curve" smooth="yes"/>
      <point x="-663.8988982786011" y="-8.071552747169807"/>
      <point x="-710.5593696347162" y="-13.508141072432167"/>
      <point x="-771.9140761912105" y="-5.3226090875032455" type="curve" smooth="yes"/>
      <point x="-838.8212586320785" y="3.6036968575332082"/>
      <point x="-826.91951737203" y="92.81327344535734"/>
      <point x="-760.012334931162" y="83.88696750032088" type="curve" smooth="yes"/>
      <point x="-715.4426442717888" y="77.940779360463"/>
      <point x="-682.428317812212" y="80.83697671413739"/>
      <point x="-651.9657673831348" y="91.60778682408855" type="curve" smooth="yes"/>
      <point x="-587.6526964787558" y="114.34731009255711"/>
      <point x="-566.9858903319871" y="169.2311224713418"/>
      <point x="-566.9964068005821" y="229.4860493641157" type="curve" smooth="yes"/>
      <point x="-567.0142966779956" y="331.9874970650826"/>
      <point x="-663.3596412303012" y="399.45436482630055"/>
      <point x="-796.0339209906667" y="399.45436482630055" type="curve" smooth="yes"/>
      <point x="-929.4604311581923" y="399.45436482630055"/>
      <point x="-1029.0143817186115" y="332.5307689763678"/>
      <point x="-1028.9963997639197" y="229.5017573270646" type="curve" smooth="yes"/>
      <point x="-1028.9857258871468" y="168.34494800565528"/>
      <point x="-985.2954559631588" y="109.79061693109409"/>
      <point x="-934.8081785560472" y="87.52787858756135" type="curve" smooth="yes"/>
      <point x="-921.6905930109205" y="81.7435822323586"/>
      <point x="-910.6642174695667" y="78.27854807940412"/>
      <point x="-900.9640267349865" y="81.70829509364891" type="curve" smooth="yes"/>
      <point x="-837.3248529041264" y="104.20952959590599"/>
      <point x="-807.3232069011169" y="19.357297821425785"/>
    </contour>
  </outline>
</glyph>
<glyph name="P" format="2">
  <advance width="555"/>
  <unicode hex="0050"/>
  <outline>
    <contour>
      <point x="335" y="259" type="curve" smooth="yes"/>
      <point x="366" y="250"/>
      <point x="396" y="247"/>
      <point x="431" y="244" type="curve" smooth="yes"/>
      <point x="505" y="238"/>
      <point x="542" y="268"/>
      <point x="531" y="323" type="curve" smooth="yes"/>
      <point x="518" y="387"/>
      <point x="447" y="428"/>
      <point x="346" y="438" type="curve" smooth="yes"/>
      <point x="314" y="441"/>
      <point x="285" y="442"/>
      <point x="256" y="442" type="curve" smooth="yes"/>
      <point x="251" y="442"/>
      <point x="290" y="380"/>
      <point x="290" y="377" type="curve" smooth="yes"/>
      <point x="290" y="271"/>
      <point x="290" y="179"/>
      <point x="290" y="114" type="curve" smooth="yes"/>
      <point x="290" y="64"/>
      <point x="286" y="26"/>
      <point x="255" y="-2" type="curve" smooth="yes"/>
      <point x="205" y="-48"/>
      <point x="145" y="19"/>
      <point x="195" y="64" type="curve" smooth="yes"/>
      <point x="200" y="69"/>
      <point x="200" y="106"/>
      <point x="200" y="114" type="curve" smooth="yes"/>
      <point x="200" y="210"/>
      <point x="200" y="306"/>
      <point x="200" y="377" type="curve" smooth="yes"/>
      <point x="200" y="464"/>
      <point x="132" y="532"/>
      <point x="256" y="532" type="curve" smooth="yes"/>
      <point x="287" y="532"/>
      <point x="318" y="531"/>
      <point x="356" y="528" type="curve" smooth="yes"/>
      <point x="508" y="512"/>
      <point x="600" y="438"/>
      <point x="619" y="341" type="curve" smooth="yes"/>
      <point x="640" y="234"/>
      <point x="568" y="144"/>
      <point x="423" y="154" type="curve" smooth="yes"/>
      <point x="382" y="157"/>
      <point x="348" y="162"/>
      <point x="311" y="171" type="curve" smooth="yes"/>
      <point x="246" y="189"/>
      <point x="269" y="276"/>
    </contour>
  </outline>
</glyph>
<glyph name="Q" format="2">
  <advance width="732"/>
  <unicode hex="0051"/>
  <outline>
    <contour>
      <point x="650" y="-62" type="curve" smooth="yes"/>
      <point x="629" y="-40"/>
      <point x="586" y="12"/>
      <point x="547" y="55" type="curve" smooth="yes"/>
      <point x="522" y="83"/>
      <point x="500" y="109"/>
      <point x="488" y="123" type="curve" smooth="yes"/>
      <point x="444" y="174"/>
      <point x="512" y="233"/>
      <point x="556" y="181" type="curve" smooth="yes"/>
      <point x="568" y="167"/>
      <point x="590" y="143"/>
      <point x="615" y="115" type="curve" smooth="yes"/>
      <point x="654" y="70"/>
      <point x="697" y="20"/>
      <point x="716" y="-2" type="curve" smooth="yes"/>
      <point x="762" y="-52"/>
      <point x="695" y="-112"/>
    </contour>
    <contour>
      <point x="517" y="-30" type="curve" smooth="yes"/>
      <point x="320" y="-45"/>
      <point x="165" y="68"/>
      <point x="165" y="229" type="curve" smooth="yes"/>
      <point x="165" y="377"/>
      <point x="296" y="489"/>
      <point x="488" y="489" type="curve" smooth="yes"/>
      <point x="686" y="489"/>
      <point x="812" y="370"/>
      <point x="786" y="236" type="curve" smooth="yes"/>
      <point x="775" y="174"/>
      <point x="729" y="123"/>
      <point x="651" y="96" type="curve" smooth="yes"/>
      <point x="556" y="63"/>
      <point x="457" y="100"/>
      <point x="419" y="146" type="curve"/>
      <point x="408" y="159"/>
      <point x="387" y="184"/>
      <point x="361" y="212" type="curve" smooth="yes"/>
      <point x="316" y="262"/>
      <point x="383" y="322"/>
      <point x="429" y="272" type="curve" smooth="yes"/>
      <point x="455" y="242"/>
      <point x="474" y="219"/>
      <point x="489" y="204" type="curve"/>
      <point x="508" y="180"/>
      <point x="572" y="163"/>
      <point x="621" y="180" type="curve" smooth="yes"/>
      <point x="663" y="195"/>
      <point x="692" y="219"/>
      <point x="698" y="252" type="curve" smooth="yes"/>
      <point x="714" y="337"/>
      <point x="612" y="399"/>
      <point x="488" y="399" type="curve" smooth="yes"/>
      <point x="355" y="399"/>
      <point x="255" y="332"/>
      <point x="255" y="229" type="curve" smooth="yes"/>
      <point x="255" y="117"/>
      <point x="373" y="49"/>
      <point x="511" y="60" type="curve" smooth="yes"/>
      <point x="578" y="65"/>
      <point x="585" y="-25"/>
    </contour>
  </outline>
</glyph>
<glyph name="S" format="2">
  <advance width="521"/>
  <unicode hex="0053"/>
  <outline>
    <contour>
      <point x="192" y="119" type="curve" smooth="yes"/>
      <point x="278" y="77"/>
      <point x="333" y="65"/>
      <point x="380" y="63" type="curve" smooth="yes"/>
      <point x="445" y="60"/>
      <point x="504" y="77"/>
      <point x="504" y="120" type="curve" smooth="yes"/>
      <point x="504" y="159"/>
      <point x="419" y="180"/>
      <point x="372" y="194" type="curve" smooth="yes"/>
      <point x="259" y="228"/>
      <point x="183" y="256"/>
      <point x="183" y="347" type="curve" smooth="yes"/>
      <point x="183" y="433"/>
      <point x="264" y="484"/>
      <point x="389" y="491" type="curve" smooth="yes"/>
      <point x="454" y="494"/>
      <point x="473" y="485"/>
      <point x="484" y="490" type="curve" smooth="yes"/>
      <point x="547" y="515"/>
      <point x="580" y="431"/>
      <point x="518" y="406" type="curve" smooth="yes"/>
      <point x="488" y="394"/>
      <point x="419" y="402"/>
      <point x="393" y="401" type="curve" smooth="yes"/>
      <point x="341" y="398"/>
      <point x="273" y="383"/>
      <point x="273" y="347" type="curve" smooth="yes"/>
      <point x="273" y="312"/>
      <point x="355" y="293"/>
      <point x="398" y="280" type="curve" smooth="yes"/>
      <point x="511" y="246"/>
      <point x="594" y="215"/>
      <point x="594" y="120" type="curve" smooth="yes"/>
      <point x="594" y="30"/>
      <point x="512" y="-34"/>
      <point x="376" y="-27" type="curve" smooth="yes"/>
      <point x="321" y="-25"/>
      <point x="254" y="-11"/>
      <point x="152" y="39" type="curve" smooth="yes"/>
      <point x="92" y="68"/>
      <point x="131" y="149"/>
    </contour>
  </outline>
</glyph>
<glyph name="T" format="2">
  <advance width="498"/>
  <unicode hex="0054"/>
  <outline>
    <contour>
      <point x="558" y="459" type="curve" smooth="yes"/>
      <point x="556" y="397"/>
      <point x="478" y="387"/>
      <point x="256" y="398" type="curve" smooth="yes"/>
      <point x="56" y="410"/>
      <point x="-48" y="584"/>
      <point x="135" y="571" type="curve" smooth="yes"/>
      <point x="266" y="562"/>
      <point x="414" y="433"/>
      <point x="414" y="330" type="curve" smooth="yes"/>
      <point x="414" y="253"/>
      <point x="414" y="162"/>
      <point x="414" y="126" type="curve" smooth="yes"/>
      <point x="414" y="54"/>
      <point x="378" y="8"/>
      <point x="317" y="10" type="curve" smooth="yes"/>
      <point x="249" y="12"/>
      <point x="252" y="102"/>
      <point x="319" y="100" type="curve" smooth="yes"/>
      <point x="323" y="100"/>
      <point x="324" y="121"/>
      <point x="324" y="126" type="curve" smooth="yes"/>
      <point x="324" y="180"/>
      <point x="324" y="278"/>
      <point x="324" y="330" type="curve" smooth="yes"/>
      <point x="324" y="388"/>
      <point x="203" y="476"/>
      <point x="129" y="481" type="curve" smooth="yes"/>
      <point x="120" y="482"/>
      <point x="252" y="488"/>
      <point x="260" y="488" type="curve" smooth="yes"/>
      <point x="268" y="488"/>
      <point x="468" y="460"/>
      <point x="468" y="463" type="curve" smooth="yes"/>
      <point x="470" y="530"/>
      <point x="560" y="527"/>
    </contour>
  </outline>
</glyph>
<glyph name="U" format="2">
  <advance width="668"/>
  <unicode hex="0055"/>
  <outline>
    <contour>
      <point x="243" y="490" type="curve" smooth="yes"/>
      <point x="279" y="434"/>
      <point x="280" y="377"/>
      <point x="280" y="347" type="curve" smooth="yes"/>
      <point x="280" y="270"/>
      <point x="280" y="232"/>
      <point x="280" y="180" type="curve" smooth="yes"/>
      <point x="280" y="110"/>
      <point x="357" y="60"/>
      <point x="441" y="68" type="curve" smooth="yes"/>
      <point x="526" y="75"/>
      <point x="628" y="111"/>
      <point x="628" y="180" type="curve" smooth="yes"/>
      <point x="628" y="257"/>
      <point x="628" y="295"/>
      <point x="628" y="347" type="curve" smooth="yes"/>
      <point x="628" y="366"/>
      <point x="629" y="405"/>
      <point x="605" y="440" type="curve" smooth="yes"/>
      <point x="568" y="497"/>
      <point x="644" y="546"/>
      <point x="681" y="490" type="curve" smooth="yes"/>
      <point x="717" y="434"/>
      <point x="718" y="377"/>
      <point x="718" y="347" type="curve" smooth="yes"/>
      <point x="718" y="270"/>
      <point x="718" y="232"/>
      <point x="718" y="180" type="curve" smooth="yes"/>
      <point x="718" y="61"/>
      <point x="595" y="-9"/>
      <point x="449" y="-22" type="curve" smooth="yes"/>
      <point x="307" y="-36"/>
      <point x="190" y="60"/>
      <point x="190" y="180" type="curve" smooth="yes"/>
      <point x="190" y="257"/>
      <point x="190" y="295"/>
      <point x="190" y="347" type="curve" smooth="yes"/>
      <point x="190" y="366"/>
      <point x="191" y="405"/>
      <point x="167" y="440" type="curve" smooth="yes"/>
      <point x="130" y="497"/>
      <point x="206" y="546"/>
    </contour>
  </outline>
</glyph>
<glyph name="V" format="2">
  <advance width="620"/>
  <unicode hex="0056"/>
  <outline>
    <contour>
      <point x="693" y="463" type="curve" smooth="yes"/>
      <point x="703" y="376"/>
      <point x="686" y="318"/>
      <point x="637" y="278" type="curve" smooth="yes"/>
      <point x="588" y="238"/>
      <point x="507" y="189"/>
      <point x="445" y="130" type="curve" smooth="yes"/>
      <point x="394" y="80"/>
      <point x="434" y="-143"/>
      <point x="326" y="73" type="curve" smooth="yes"/>
      <point x="284" y="157"/>
      <point x="246" y="232"/>
      <point x="212" y="301" type="curve" smooth="yes"/>
      <point x="194" y="336"/>
      <point x="176" y="382"/>
      <point x="137" y="430" type="curve" smooth="yes"/>
      <point x="95" y="482"/>
      <point x="165" y="539"/>
      <point x="207" y="486" type="curve" smooth="yes"/>
      <point x="252" y="430"/>
      <point x="272" y="382"/>
      <point x="292" y="341" type="curve" smooth="yes"/>
      <point x="327" y="270"/>
      <point x="366" y="194"/>
      <point x="406" y="113" type="curve" smooth="yes"/>
      <point x="430" y="66"/>
      <point x="155" y="-23"/>
      <point x="383" y="194" type="curve" smooth="yes"/>
      <point x="449" y="259"/>
      <point x="536" y="312"/>
      <point x="581" y="348" type="curve" smooth="yes"/>
      <point x="607" y="369"/>
      <point x="609" y="406"/>
      <point x="603" y="453" type="curve" smooth="yes"/>
      <point x="595" y="520"/>
      <point x="685" y="530"/>
    </contour>
  </outline>
</glyph>
<glyph name="Z" format="2">
  <advance width="595"/>
  <unicode hex="005A"/>
  <outline>
    <contour>
      <point x="211" y="499" type="curve" smooth="yes"/>
      <point x="271" y="490"/>
      <point x="378" y="485"/>
      <point x="443" y="485" type="curve" smooth="yes"/>
      <point x="476" y="485"/>
      <point x="489" y="485"/>
      <point x="521" y="488" type="curve" smooth="yes"/>
      <point x="529" y="488"/>
      <point x="487" y="439"/>
      <point x="483" y="435" type="curve" smooth="yes"/>
      <point x="456" y="408"/>
      <point x="444" y="397"/>
      <point x="421" y="374" type="curve" smooth="yes"/>
      <point x="387" y="343"/>
      <point x="272" y="230"/>
      <point x="241" y="198" type="curve" smooth="yes"/>
      <point x="217" y="175"/>
      <point x="197" y="157"/>
      <point x="179" y="138" type="curve" smooth="yes"/>
      <point x="156" y="114"/>
      <point x="255" y="74"/>
      <point x="302" y="71" type="curve" smooth="yes"/>
      <point x="340" y="69"/>
      <point x="361" y="68"/>
      <point x="402" y="68" type="curve" smooth="yes"/>
      <point x="463" y="68"/>
      <point x="530" y="68"/>
      <point x="579" y="81" type="curve" smooth="yes"/>
      <point x="644" y="98"/>
      <point x="667" y="11"/>
      <point x="601" y="-7" type="curve" smooth="yes"/>
      <point x="544" y="-22"/>
      <point x="475" y="-22"/>
      <point x="402" y="-22" type="curve" smooth="yes"/>
      <point x="359" y="-22"/>
      <point x="336" y="-21"/>
      <point x="296" y="-19" type="curve" smooth="yes"/>
      <point x="135" y="-9"/>
      <point x="34" y="116"/>
      <point x="115" y="202" type="curve" smooth="yes"/>
      <point x="135" y="221"/>
      <point x="155" y="239"/>
      <point x="177" y="262" type="curve" smooth="yes"/>
      <point x="210" y="294"/>
      <point x="325" y="407"/>
      <point x="359" y="440" type="curve" smooth="yes"/>
      <point x="382" y="461"/>
      <point x="392" y="472"/>
      <point x="419" y="499" type="curve" smooth="yes"/>
      <point x="535" y="613"/>
      <point x="719" y="412"/>
      <point x="529" y="398" type="curve" smooth="yes"/>
      <point x="494" y="395"/>
      <point x="478" y="395"/>
      <point x="443" y="395" type="curve" smooth="yes"/>
      <point x="374" y="395"/>
      <point x="263" y="400"/>
      <point x="199" y="409" type="curve" smooth="yes"/>
      <point x="132" y="419"/>
      <point x="145" y="508"/>
    </contour>
  </outline>
</glyph>
<glyph name="backslash" format="2">
  <advance width="490"/>
  <unicode hex="005C"/>
  <outline>
    <contour>
      <point x="441" y="-54" type="curve" smooth="yes"/>
      <point x="442" y="-53"/>
      <point x="425" y="-16"/>
      <point x="424" y="-13" type="curve" smooth="yes"/>
      <point x="361" y="122"/>
      <point x="296" y="266"/>
      <point x="228" y="410" type="curve" smooth="yes"/>
      <point x="217" y="435"/>
      <point x="198" y="462"/>
      <point x="167" y="499" type="curve" smooth="yes"/>
      <point x="124" y="551"/>
      <point x="193" y="609"/>
      <point x="237" y="557" type="curve" smooth="yes"/>
      <point x="275" y="510"/>
      <point x="297" y="477"/>
      <point x="310" y="448" type="curve" smooth="yes"/>
      <point x="376" y="309"/>
      <point x="441" y="164"/>
      <point x="506" y="25" type="curve" smooth="yes"/>
      <point x="532" y="-31"/>
      <point x="536" y="-64"/>
      <point x="523" y="-92" type="curve" smooth="yes"/>
      <point x="494" y="-153"/>
      <point x="413" y="-115"/>
    </contour>
  </outline>
</glyph>
<glyph name="d" format="2">
  <advance width="584"/>
  <unicode hex="0064"/>
  <outline>
    <contour>
      <point x="626" y="504" type="curve" smooth="yes"/>
      <point x="641" y="466"/>
      <point x="643" y="435"/>
      <point x="635" y="401" type="curve" smooth="yes"/>
      <point x="607" y="290"/>
      <point x="519" y="329"/>
      <point x="519" y="241" type="curve" smooth="yes"/>
      <point x="519" y="120"/>
      <point x="534" y="-12"/>
      <point x="407" y="-32" type="curve" smooth="yes"/>
      <point x="285" y="-51"/>
      <point x="159" y="49"/>
      <point x="159" y="164" type="curve" smooth="yes"/>
      <point x="159" y="276"/>
      <point x="257" y="361"/>
      <point x="399" y="361" type="curve" smooth="yes"/>
      <point x="540" y="361"/>
      <point x="649" y="270"/>
      <point x="649" y="159" type="curve" smooth="yes"/>
      <point x="649" y="127"/>
      <point x="649" y="89"/>
      <point x="649" y="73" type="curve" smooth="yes"/>
      <point x="649" y="39"/>
      <point x="642" y="11"/>
      <point x="628" y="-12" type="curve" smooth="yes"/>
      <point x="592" y="-69"/>
      <point x="516" y="-21"/>
      <point x="552" y="36" type="curve" smooth="yes"/>
      <point x="557" y="45"/>
      <point x="559" y="60"/>
      <point x="559" y="73" type="curve" smooth="yes"/>
      <point x="559" y="96"/>
      <point x="559" y="138"/>
      <point x="559" y="159" type="curve" smooth="yes"/>
      <point x="559" y="224"/>
      <point x="481" y="271"/>
      <point x="399" y="271" type="curve" smooth="yes"/>
      <point x="315" y="271"/>
      <point x="249" y="230"/>
      <point x="249" y="164" type="curve" smooth="yes"/>
      <point x="249" y="103"/>
      <point x="329" y="47"/>
      <point x="393" y="56" type="curve" smooth="yes"/>
      <point x="445" y="65"/>
      <point x="429" y="191"/>
      <point x="429" y="241" type="curve" smooth="yes"/>
      <point x="429" y="389"/>
      <point x="531" y="356"/>
      <point x="547" y="421" type="curve" smooth="yes"/>
      <point x="551" y="439"/>
      <point x="549" y="452"/>
      <point x="542" y="472" type="curve" smooth="yes"/>
      <point x="518" y="535"/>
      <point x="602" y="567"/>
    </contour>
  </outline>
</glyph>
<glyph name="e" format="2">
  <advance width="548"/>
  <unicode hex="0065"/>
  <outline>
    <contour>
      <point x="223" y="259" type="curve" smooth="yes"/>
      <point x="329" y="228"/>
      <point x="333" y="261"/>
      <point x="417" y="261" type="curve" smooth="yes"/>
      <point x="423" y="261"/>
      <point x="533" y="204"/>
      <point x="532" y="208" type="curve" smooth="yes"/>
      <point x="521" y="250"/>
      <point x="465" y="273"/>
      <point x="402" y="273" type="curve" smooth="yes"/>
      <point x="317" y="273"/>
      <point x="249" y="233"/>
      <point x="249" y="166" type="curve" smooth="yes"/>
      <point x="249" y="95"/>
      <point x="324" y="60"/>
      <point x="411" y="60" type="curve" smooth="yes"/>
      <point x="442" y="60"/>
      <point x="487" y="65"/>
      <point x="502" y="92" type="curve" smooth="yes"/>
      <point x="536" y="150"/>
      <point x="614" y="105"/>
      <point x="580" y="46" type="curve" smooth="yes"/>
      <point x="546" y="-12"/>
      <point x="479" y="-30"/>
      <point x="411" y="-30" type="curve" smooth="yes"/>
      <point x="265" y="-30"/>
      <point x="159" y="48"/>
      <point x="159" y="166" type="curve" smooth="yes"/>
      <point x="159" y="280"/>
      <point x="259" y="363"/>
      <point x="402" y="363" type="curve" smooth="yes"/>
      <point x="516" y="363"/>
      <point x="598" y="309"/>
      <point x="620" y="230" type="curve" smooth="yes"/>
      <point x="645" y="134"/>
      <point x="598" y="171"/>
      <point x="417" y="171" type="curve" smooth="yes"/>
      <point x="348" y="171"/>
      <point x="327" y="134"/>
      <point x="197" y="173" type="curve" smooth="yes"/>
      <point x="132" y="192"/>
      <point x="158" y="278"/>
    </contour>
  </outline>
</glyph>
<glyph name="f" format="2">
  <advance width="364"/>
  <unicode hex="0066"/>
  <outline>
    <contour>
      <point x="413" y="468" type="curve" smooth="yes"/>
      <point x="397" y="463"/>
      <point x="328" y="439"/>
      <point x="328" y="404" type="curve" smooth="yes"/>
      <point x="328" y="283"/>
      <point x="328" y="176"/>
      <point x="328" y="129" type="curve" smooth="yes"/>
      <point x="328" y="70"/>
      <point x="320" y="25"/>
      <point x="288" y="0" type="curve" smooth="yes"/>
      <point x="235" y="-42"/>
      <point x="179" y="28"/>
      <point x="232" y="70" type="curve" smooth="yes"/>
      <point x="236" y="74"/>
      <point x="238" y="121"/>
      <point x="238" y="129" type="curve" smooth="yes"/>
      <point x="238" y="198"/>
      <point x="238" y="323"/>
      <point x="238" y="404" type="curve" smooth="yes"/>
      <point x="238" y="499"/>
      <point x="342" y="539"/>
      <point x="383" y="554" type="curve" smooth="yes"/>
      <point x="447" y="576"/>
      <point x="476" y="490"/>
    </contour>
    <contour>
      <point x="389" y="294" type="curve" smooth="yes"/>
      <point x="351" y="294"/>
      <point x="311" y="300"/>
      <point x="265" y="314" type="curve" smooth="yes"/>
      <point x="260" y="315"/>
      <point x="205" y="334"/>
      <point x="204" y="333" type="curve" smooth="yes"/>
      <point x="192" y="314"/>
      <point x="178" y="294"/>
      <point x="137" y="294" type="curve" smooth="yes"/>
      <point x="70" y="294"/>
      <point x="70" y="384"/>
      <point x="137" y="384" type="curve" smooth="yes"/>
      <point x="139" y="384"/>
      <point x="128" y="381"/>
      <point x="128" y="381" type="curve"/>
      <point x="148" y="412"/>
      <point x="186" y="430"/>
      <point x="289" y="400" type="curve" smooth="yes"/>
      <point x="327" y="390"/>
      <point x="359" y="384"/>
      <point x="389" y="384" type="curve" smooth="yes"/>
      <point x="457" y="384"/>
      <point x="457" y="294"/>
    </contour>
  </outline>
</glyph>
<glyph name="i" format="2">
  <advance width="231"/>
  <unicode hex="0069"/>
  <outline>
    <contour>
      <point x="180" y="59" type="curve" smooth="yes"/>
      <point x="188" y="70"/>
      <point x="190" y="88"/>
      <point x="190" y="105" type="curve" smooth="yes"/>
      <point x="190" y="154"/>
      <point x="190" y="191"/>
      <point x="190" y="224" type="curve" smooth="yes"/>
      <point x="190" y="249"/>
      <point x="187" y="275"/>
      <point x="173" y="310" type="curve" smooth="yes"/>
      <point x="149" y="373"/>
      <point x="232" y="405"/>
      <point x="257" y="342" type="curve" smooth="yes"/>
      <point x="275" y="295"/>
      <point x="280" y="259"/>
      <point x="280" y="224" type="curve" smooth="yes"/>
      <point x="280" y="175"/>
      <point x="280" y="138"/>
      <point x="280" y="105" type="curve" smooth="yes"/>
      <point x="280" y="63"/>
      <point x="271" y="30"/>
      <point x="250" y="3" type="curve" smooth="yes"/>
      <point x="208" y="-50"/>
      <point x="138" y="6"/>
    </contour>
    <contour>
      <point x="212" y="490" type="curve" smooth="yes"/>
      <point x="213" y="490"/>
      <point x="187" y="454"/>
      <point x="186" y="455" type="curve" smooth="yes"/>
      <point x="152" y="513"/>
      <point x="230" y="559"/>
      <point x="264" y="501" type="curve" smooth="yes"/>
      <point x="294" y="449"/>
      <point x="268" y="413"/>
      <point x="238" y="404" type="curve" smooth="yes"/>
      <point x="173" y="385"/>
      <point x="147" y="471"/>
    </contour>
  </outline>
</glyph>
<glyph name="o" format="2">
  <advance width="577"/>
  <unicode hex="006F"/>
  <outline>
    <contour>
      <point x="314" y="-1" type="curve" smooth="yes"/>
      <point x="268" y="0"/>
      <point x="238" y="12"/>
      <point x="207" y="46" type="curve" smooth="yes"/>
      <point x="181" y="76"/>
      <point x="159" y="120"/>
      <point x="159" y="167" type="curve" smooth="yes"/>
      <point x="159" y="277"/>
      <point x="260" y="363"/>
      <point x="408" y="363" type="curve" smooth="yes"/>
      <point x="557" y="363"/>
      <point x="658" y="277"/>
      <point x="658" y="167" type="curve" smooth="yes"/>
      <point x="658" y="118"/>
      <point x="643" y="72"/>
      <point x="604" y="41" type="curve" smooth="yes"/>
      <point x="564" y="10"/>
      <point x="516" y="1"/>
      <point x="436" y="-1" type="curve" smooth="yes"/>
      <point x="369" y="-3"/>
      <point x="366" y="87"/>
      <point x="434" y="89" type="curve" smooth="yes"/>
      <point x="480" y="90"/>
      <point x="525" y="93"/>
      <point x="548" y="111" type="curve" smooth="yes"/>
      <point x="564" y="124"/>
      <point x="568" y="147"/>
      <point x="568" y="167" type="curve" smooth="yes"/>
      <point x="568" y="232"/>
      <point x="496" y="273"/>
      <point x="408" y="273" type="curve" smooth="yes"/>
      <point x="321" y="273"/>
      <point x="249" y="232"/>
      <point x="249" y="167" type="curve" smooth="yes"/>
      <point x="249" y="144"/>
      <point x="263" y="120"/>
      <point x="275" y="106" type="curve" smooth="yes"/>
      <point x="288" y="91"/>
      <point x="296" y="90"/>
      <point x="316" y="89" type="curve" smooth="yes"/>
      <point x="384" y="87"/>
      <point x="381" y="-3"/>
    </contour>
  </outline>
</glyph>
<glyph name="r" format="2">
  <advance width="389"/>
  <unicode hex="0072"/>
  <outline>
    <contour>
      <point x="416" y="311" type="curve" smooth="yes"/>
      <point x="364" y="281"/>
      <point x="275" y="234"/>
      <point x="275" y="174" type="curve" smooth="yes"/>
      <point x="275" y="154"/>
      <point x="281" y="108"/>
      <point x="281" y="80" type="curve" smooth="yes"/>
      <point x="281" y="-67"/>
      <point x="94" y="-3"/>
      <point x="72" y="155" type="curve" smooth="yes"/>
      <point x="67" y="196"/>
      <point x="67" y="241"/>
      <point x="73" y="271" type="curve" smooth="yes"/>
      <point x="78" y="299"/>
      <point x="99" y="324"/>
      <point x="76" y="371" type="curve" smooth="yes"/>
      <point x="46" y="432"/>
      <point x="127" y="471"/>
      <point x="156" y="411" type="curve" smooth="yes"/>
      <point x="196" y="329"/>
      <point x="170" y="302"/>
      <point x="161" y="255" type="curve" smooth="yes"/>
      <point x="157" y="233"/>
      <point x="157" y="196"/>
      <point x="162" y="167" type="curve" smooth="yes"/>
      <point x="163" y="160"/>
      <point x="191" y="73"/>
      <point x="191" y="80" type="curve" smooth="yes"/>
      <point x="191" y="102"/>
      <point x="185" y="149"/>
      <point x="185" y="174" type="curve" smooth="yes"/>
      <point x="185" y="278"/>
      <point x="280" y="336"/>
      <point x="372" y="389" type="curve" smooth="yes"/>
      <point x="430" y="423"/>
      <point x="475" y="345"/>
    </contour>
  </outline>
</glyph>
<glyph name="s" format="2">
  <advance width="462"/>
  <unicode hex="0073"/>
  <outline>
    <contour>
      <point x="453" y="265" type="curve" smooth="yes"/>
      <point x="428" y="266"/>
      <point x="385" y="273"/>
      <point x="349" y="273" type="curve" smooth="yes"/>
      <point x="320" y="273"/>
      <point x="261" y="264"/>
      <point x="261" y="246" type="curve" smooth="yes"/>
      <point x="261" y="235"/>
      <point x="347" y="215"/>
      <point x="361" y="212" type="curve" smooth="yes"/>
      <point x="453" y="199"/>
      <point x="521" y="176"/>
      <point x="521" y="98" type="curve" smooth="yes"/>
      <point x="521" y="35"/>
      <point x="471" y="-30"/>
      <point x="364" y="-30" type="curve" smooth="yes"/>
      <point x="311" y="-30"/>
      <point x="234" y="-5"/>
      <point x="155" y="32" type="curve" smooth="yes"/>
      <point x="94" y="61"/>
      <point x="132" y="142"/>
      <point x="193" y="114" type="curve" smooth="yes"/>
      <point x="253" y="85"/>
      <point x="324" y="60"/>
      <point x="364" y="60" type="curve" smooth="yes"/>
      <point x="404" y="60"/>
      <point x="431" y="74"/>
      <point x="431" y="98" type="curve" smooth="yes"/>
      <point x="431" y="112"/>
      <point x="363" y="121"/>
      <point x="345" y="124" type="curve" smooth="yes"/>
      <point x="254" y="139"/>
      <point x="171" y="173"/>
      <point x="171" y="246" type="curve" smooth="yes"/>
      <point x="171" y="314"/>
      <point x="238" y="363"/>
      <point x="349" y="363" type="curve" smooth="yes"/>
      <point x="391" y="363"/>
      <point x="436" y="356"/>
      <point x="457" y="355" type="curve" smooth="yes"/>
      <point x="524" y="352"/>
      <point x="520" y="262"/>
    </contour>
  </outline>
</glyph>
<glyph name="u" format="2">
  <advance width="568"/>
  <unicode hex="0075"/>
  <outline>
    <contour>
      <point x="245" y="340" type="curve" smooth="yes"/>
      <point x="272" y="256"/>
      <point x="267" y="199"/>
      <point x="267" y="135" type="curve" smooth="yes"/>
      <point x="267" y="80"/>
      <point x="311" y="57"/>
      <point x="378" y="57" type="curve" smooth="yes"/>
      <point x="458" y="57"/>
      <point x="533" y="97"/>
      <point x="533" y="147" type="curve" smooth="yes"/>
      <point x="533" y="180"/>
      <point x="533" y="230"/>
      <point x="533" y="252" type="curve" smooth="yes"/>
      <point x="533" y="258"/>
      <point x="503" y="343"/>
      <point x="503" y="337" type="curve" smooth="yes"/>
      <point x="503" y="289"/>
      <point x="503" y="224"/>
      <point x="503" y="181" type="curve" smooth="yes"/>
      <point x="503" y="142"/>
      <point x="502" y="109"/>
      <point x="487" y="83" type="curve" smooth="yes"/>
      <point x="455" y="24"/>
      <point x="376" y="68"/>
      <point x="409" y="127" type="curve" smooth="yes"/>
      <point x="413" y="135"/>
      <point x="413" y="169"/>
      <point x="413" y="181" type="curve" smooth="yes"/>
      <point x="413" y="246"/>
      <point x="413" y="305"/>
      <point x="413" y="337" type="curve" smooth="yes"/>
      <point x="413" y="484"/>
      <point x="623" y="399"/>
      <point x="623" y="252" type="curve" smooth="yes"/>
      <point x="623" y="219"/>
      <point x="623" y="169"/>
      <point x="623" y="147" type="curve" smooth="yes"/>
      <point x="623" y="54"/>
      <point x="526" y="-33"/>
      <point x="378" y="-33" type="curve" smooth="yes"/>
      <point x="254" y="-33"/>
      <point x="177" y="33"/>
      <point x="177" y="135" type="curve" smooth="yes"/>
      <point x="177" y="189"/>
      <point x="182" y="242"/>
      <point x="159" y="312" type="curve" smooth="yes"/>
      <point x="138" y="376"/>
      <point x="224" y="404"/>
    </contour>
  </outline>
</glyph>
<glyph name="v" format="2">
  <advance width="489"/>
  <unicode hex="0076"/>
  <outline>
    <contour>
      <point x="195" y="357" type="curve" smooth="yes"/>
      <point x="241" y="296"/>
      <point x="260" y="265"/>
      <point x="274" y="239" type="curve" smooth="yes"/>
      <point x="306" y="184"/>
      <point x="323" y="148"/>
      <point x="356" y="94" type="curve" smooth="yes"/>
      <point x="359" y="88"/>
      <point x="322" y="123"/>
      <point x="325" y="128" type="curve" smooth="yes"/>
      <point x="362" y="195"/>
      <point x="429" y="210"/>
      <point x="462" y="250" type="curve" smooth="yes"/>
      <point x="474" y="265"/>
      <point x="476" y="295"/>
      <point x="476" y="330" type="curve" smooth="yes"/>
      <point x="476" y="398"/>
      <point x="566" y="398"/>
      <point x="566" y="330" type="curve" smooth="yes"/>
      <point x="566" y="258"/>
      <point x="555" y="222"/>
      <point x="532" y="194" type="curve" smooth="yes"/>
      <point x="483" y="134"/>
      <point x="428" y="130"/>
      <point x="403" y="84" type="curve" smooth="yes"/>
      <point x="336" y="-35"/>
      <point x="352" y="-76"/>
      <point x="278" y="48" type="curve" smooth="yes"/>
      <point x="245" y="104"/>
      <point x="226" y="141"/>
      <point x="196" y="195" type="curve" smooth="yes"/>
      <point x="182" y="219"/>
      <point x="165" y="246"/>
      <point x="123" y="303" type="curve" smooth="yes"/>
      <point x="83" y="357"/>
      <point x="155" y="411"/>
    </contour>
  </outline>
</glyph>
<glyph name="w" format="2">
  <advance width="725"/>
  <unicode hex="0077"/>
  <outline>
    <contour>
      <point x="230" y="333" type="curve" smooth="yes"/>
      <point x="245" y="303"/>
      <point x="260" y="272"/>
      <point x="274" y="242" type="curve" smooth="yes"/>
      <point x="291" y="207"/>
      <point x="308" y="170"/>
      <point x="328" y="132" type="curve" smooth="yes"/>
      <point x="337" y="112"/>
      <point x="341" y="106"/>
      <point x="349" y="90" type="curve" smooth="yes"/>
      <point x="435" y="-77"/>
      <point x="141" y="13"/>
      <point x="215" y="176" type="curve" smooth="yes"/>
      <point x="222" y="190"/>
      <point x="226" y="198"/>
      <point x="232" y="212" type="curve" smooth="yes"/>
      <point x="248" y="247"/>
      <point x="263" y="282"/>
      <point x="277" y="317" type="curve" smooth="yes"/>
      <point x="288" y="343"/>
      <point x="292" y="341"/>
      <point x="317" y="368" type="curve" smooth="yes"/>
      <point x="391" y="445"/>
      <point x="469" y="405"/>
      <point x="534" y="290" type="curve" smooth="yes"/>
      <point x="546" y="269"/>
      <point x="549" y="258"/>
      <point x="556" y="244" type="curve" smooth="yes"/>
      <point x="575" y="204"/>
      <point x="589" y="169"/>
      <point x="603" y="136" type="curve" smooth="yes"/>
      <point x="610" y="120"/>
      <point x="613" y="121"/>
      <point x="629" y="91" type="curve" smooth="yes"/>
      <point x="706" y="-62"/>
      <point x="414" y="8"/>
      <point x="497" y="174" type="curve" smooth="yes"/>
      <point x="505" y="190"/>
      <point x="508" y="196"/>
      <point x="517" y="216" type="curve" smooth="yes"/>
      <point x="541" y="265"/>
      <point x="565" y="297"/>
      <point x="647" y="318" type="curve" smooth="yes"/>
      <point x="659" y="321"/>
      <point x="678" y="355"/>
      <point x="684" y="367" type="curve" smooth="yes"/>
      <point x="713" y="428"/>
      <point x="794" y="390"/>
      <point x="766" y="329" type="curve" smooth="yes"/>
      <point x="745" y="284"/>
      <point x="712" y="241"/>
      <point x="669" y="230" type="curve" smooth="yes"/>
      <point x="619" y="218"/>
      <point x="613" y="207"/>
      <point x="599" y="178" type="curve" smooth="yes"/>
      <point x="588" y="156"/>
      <point x="585" y="150"/>
      <point x="577" y="134" type="curve" smooth="yes"/>
      <point x="574" y="128"/>
      <point x="551" y="45"/>
      <point x="549" y="49" type="curve" smooth="yes"/>
      <point x="538" y="70"/>
      <point x="530" y="78"/>
      <point x="521" y="100" type="curve" smooth="yes"/>
      <point x="507" y="133"/>
      <point x="493" y="168"/>
      <point x="476" y="204" type="curve" smooth="yes"/>
      <point x="467" y="222"/>
      <point x="466" y="229"/>
      <point x="456" y="246" type="curve" smooth="yes"/>
      <point x="434" y="285"/>
      <point x="407" y="332"/>
      <point x="383" y="306" type="curve" smooth="yes"/>
      <point x="379" y="302"/>
      <point x="362" y="287"/>
      <point x="361" y="283" type="curve" smooth="yes"/>
      <point x="345" y="246"/>
      <point x="330" y="211"/>
      <point x="314" y="174" type="curve" smooth="yes"/>
      <point x="306" y="158"/>
      <point x="304" y="152"/>
      <point x="297" y="138" type="curve" smooth="yes"/>
      <point x="294" y="133"/>
      <point x="271" y="45"/>
      <point x="267" y="52" type="curve" smooth="yes"/>
      <point x="261" y="66"/>
      <point x="257" y="72"/>
      <point x="248" y="90" type="curve" smooth="yes"/>
      <point x="228" y="130"/>
      <point x="211" y="167"/>
      <point x="194" y="202" type="curve" smooth="yes"/>
      <point x="178" y="232"/>
      <point x="165" y="263"/>
      <point x="150" y="291" type="curve" smooth="yes"/>
      <point x="119" y="351"/>
      <point x="199" y="393"/>
    </contour>
  </outline>
</glyph>
<glyph name="z" format="2">
  <advance width="474"/>
  <unicode hex="007A"/>
  <outline>
    <contour>
      <point x="206" y="361" type="curve" smooth="yes"/>
      <point x="257" y="354"/>
      <point x="298" y="354"/>
      <point x="348" y="354" type="curve" smooth="yes"/>
      <point x="389" y="354"/>
      <point x="417" y="354"/>
      <point x="454" y="354" type="curve" smooth="yes"/>
      <point x="460" y="354"/>
      <point x="394" y="319"/>
      <point x="390" y="315" type="curve" smooth="yes"/>
      <point x="361" y="291"/>
      <point x="340" y="275"/>
      <point x="314" y="254" type="curve" smooth="yes"/>
      <point x="285" y="229"/>
      <point x="250" y="200"/>
      <point x="218" y="174" type="curve" smooth="yes"/>
      <point x="193" y="153"/>
      <point x="177" y="139"/>
      <point x="151" y="118" type="curve" smooth="yes"/>
      <point x="139" y="108"/>
      <point x="252" y="65"/>
      <point x="270" y="65" type="curve" smooth="yes"/>
      <point x="316" y="65"/>
      <point x="338" y="65"/>
      <point x="364" y="65" type="curve" smooth="yes"/>
      <point x="414" y="65"/>
      <point x="459" y="65"/>
      <point x="489" y="71" type="curve" smooth="yes"/>
      <point x="555" y="85"/>
      <point x="573" y="-3"/>
      <point x="507" y="-17" type="curve" smooth="yes"/>
      <point x="470" y="-25"/>
      <point x="426" y="-25"/>
      <point x="364" y="-25" type="curve" smooth="yes"/>
      <point x="325" y="-25"/>
      <point x="301" y="-25"/>
      <point x="270" y="-25" type="curve" smooth="yes"/>
      <point x="133" y="-25"/>
      <point x="2" y="110"/>
      <point x="93" y="186" type="curve" smooth="yes"/>
      <point x="119" y="209"/>
      <point x="135" y="223"/>
      <point x="160" y="242" type="curve" smooth="yes"/>
      <point x="190" y="268"/>
      <point x="225" y="297"/>
      <point x="258" y="324" type="curve" smooth="yes"/>
      <point x="284" y="345"/>
      <point x="303" y="361"/>
      <point x="332" y="385" type="curve" smooth="yes"/>
      <point x="456" y="486"/>
      <point x="621" y="264"/>
      <point x="454" y="264" type="curve" smooth="yes"/>
      <point x="399" y="264"/>
      <point x="376" y="264"/>
      <point x="348" y="264" type="curve" smooth="yes"/>
      <point x="294" y="264"/>
      <point x="249" y="264"/>
      <point x="194" y="271" type="curve" smooth="yes"/>
      <point x="127" y="280"/>
      <point x="139" y="369"/>
    </contour>
  </outline>
</glyph>
<glyph name="bar" format="2">
  <advance width="315"/>
  <unicode hex="007C"/>
  <outline>
    <contour>
      <point x="286" y="552" type="curve" smooth="yes"/>
      <point x="315" y="508"/>
      <point x="323" y="464"/>
      <point x="323" y="417" type="curve" smooth="yes"/>
      <point x="323" y="237"/>
      <point x="323" y="134"/>
      <point x="323" y="14" type="curve" smooth="yes"/>
      <point x="323" y="-65"/>
      <point x="294" y="-102"/>
      <point x="245" y="-110" type="curve" smooth="yes"/>
      <point x="179" y="-121"/>
      <point x="164" y="-33"/>
      <point x="231" y="-22" type="curve" smooth="yes"/>
      <point x="233" y="-21"/>
      <point x="233" y="10"/>
      <point x="233" y="14" type="curve" smooth="yes"/>
      <point x="233" y="193"/>
      <point x="233" y="296"/>
      <point x="233" y="417" type="curve" smooth="yes"/>
      <point x="233" y="448"/>
      <point x="229" y="474"/>
      <point x="210" y="504" type="curve" smooth="yes"/>
      <point x="174" y="560"/>
      <point x="249" y="609"/>
    </contour>
  </outline>
</glyph>
<glyph name="exclamdown" format="2">
  <advance width="261"/>
  <unicode hex="00A1"/>
  <outline>
    <contour>
      <point x="297" y="199" type="curve" smooth="yes"/>
      <point x="297" y="-52" type="line" smooth="yes"/>
      <point x="297" y="-120"/>
      <point x="207" y="-119"/>
      <point x="207" y="-52" type="curve" smooth="yes"/>
      <point x="207" y="199" type="line" smooth="yes"/>
      <point x="207" y="267"/>
      <point x="297" y="267"/>
    </contour>
    <contour>
      <point x="256" y="297" type="curve" smooth="yes"/>
      <point x="168" y="305"/>
      <point x="167" y="407"/>
      <point x="255" y="418" type="curve" smooth="yes"/>
      <point x="322" y="426"/>
      <point x="332" y="336"/>
      <point x="265" y="328" type="curve" smooth="yes"/>
      <point x="263" y="328"/>
      <point x="261" y="387"/>
      <point x="264" y="387" type="curve" smooth="yes"/>
      <point x="331" y="381"/>
      <point x="323" y="291"/>
    </contour>
  </outline>
</glyph>
<glyph name="sterling" format="2">
  <advance width="541"/>
  <unicode hex="00A3"/>
  <outline>
    <contour>
      <point x="547" y="403" type="curve" smooth="yes"/>
      <point x="517" y="392"/>
      <point x="450" y="401"/>
      <point x="424" y="401" type="curve" smooth="yes"/>
      <point x="367" y="401"/>
      <point x="319" y="384"/>
      <point x="319" y="342" type="curve" smooth="yes"/>
      <point x="319" y="297"/>
      <point x="382" y="160"/>
      <point x="327" y="107" type="curve" smooth="yes"/>
      <point x="284" y="67"/>
      <point x="207" y="63"/>
      <point x="142" y="63" type="curve" smooth="yes"/>
      <point x="135" y="63"/>
      <point x="260" y="68"/>
      <point x="267" y="68" type="curve" smooth="yes"/>
      <point x="308" y="68"/>
      <point x="374" y="68"/>
      <point x="426" y="68" type="curve" smooth="yes"/>
      <point x="430" y="68"/>
      <point x="501" y="40"/>
      <point x="501" y="42" type="curve" smooth="yes"/>
      <point x="499" y="110"/>
      <point x="589" y="113"/>
      <point x="591" y="46" type="curve" smooth="yes"/>
      <point x="593" y="-16"/>
      <point x="547" y="-22"/>
      <point x="426" y="-22" type="curve" smooth="yes"/>
      <point x="349" y="-22"/>
      <point x="295" y="-22"/>
      <point x="267" y="-22" type="curve" smooth="yes"/>
      <point x="100" y="-22"/>
      <point x="-25" y="153"/>
      <point x="142" y="153" type="curve" smooth="yes"/>
      <point x="173" y="153"/>
      <point x="245" y="154"/>
      <point x="265" y="173" type="curve" smooth="yes"/>
      <point x="283" y="189"/>
      <point x="229" y="199"/>
      <point x="229" y="342" type="curve" smooth="yes"/>
      <point x="229" y="430"/>
      <point x="303" y="491"/>
      <point x="424" y="491" type="curve" smooth="yes"/>
      <point x="498" y="491"/>
      <point x="505" y="483"/>
      <point x="515" y="487" type="curve" smooth="yes"/>
      <point x="579" y="511"/>
      <point x="610" y="426"/>
    </contour>
    <contour>
      <point x="93" y="333" type="curve" smooth="yes"/>
      <point x="138" y="351"/>
      <point x="212" y="339"/>
      <point x="305" y="321" type="curve" smooth="yes"/>
      <point x="376" y="307"/>
      <point x="438" y="301"/>
      <point x="502" y="293" type="curve" smooth="yes"/>
      <point x="569" y="283"/>
      <point x="557" y="194"/>
      <point x="490" y="203" type="curve" smooth="yes"/>
      <point x="422" y="213"/>
      <point x="362" y="217"/>
      <point x="287" y="233" type="curve" smooth="yes"/>
      <point x="239" y="242"/>
      <point x="150" y="259"/>
      <point x="127" y="249" type="curve" smooth="yes"/>
      <point x="64" y="224"/>
      <point x="31" y="308"/>
    </contour>
  </outline>
</glyph>
<glyph name="degree" format="2">
  <advance width="532"/>
  <unicode hex="00B0"/>
  <outline>
    <contour>
      <point x="265" y="342" type="curve" smooth="yes"/>
      <point x="328" y="342"/>
      <point x="383" y="368"/>
      <point x="383" y="413" type="curve" smooth="yes"/>
      <point x="383" y="458"/>
      <point x="328" y="484"/>
      <point x="265" y="484" type="curve" smooth="yes"/>
      <point x="202" y="484"/>
      <point x="150" y="458"/>
      <point x="150" y="413" type="curve" smooth="yes"/>
      <point x="150" y="368"/>
      <point x="202" y="342"/>
    </contour>
    <contour>
      <point x="265" y="252" type="curve" smooth="yes"/>
      <point x="140" y="252"/>
      <point x="60" y="323"/>
      <point x="60" y="413" type="curve" smooth="yes"/>
      <point x="60" y="503"/>
      <point x="140" y="574"/>
      <point x="265" y="574" type="curve" smooth="yes"/>
      <point x="391" y="574"/>
      <point x="473" y="503"/>
      <point x="473" y="413" type="curve" smooth="yes"/>
      <point x="473" y="323"/>
      <point x="391" y="252"/>
    </contour>
  </outline>
</glyph>
<glyph name="twosuperior" format="2">
  <advance width="431"/>
  <unicode hex="00B2"/>
  <outline>
    <contour>
      <point x="332" y="254" type="curve" smooth="yes"/>
      <point x="107" y="254" type="line" smooth="yes"/>
      <point x="61" y="254"/>
      <point x="45" y="314"/>
      <point x="84" y="338" type="curve" smooth="yes"/>
      <point x="215" y="416" type="line" smooth="yes"/>
      <point x="233" y="426"/>
      <point x="273" y="455"/>
      <point x="273" y="464" type="curve" smooth="yes"/>
      <point x="273" y="491"/>
      <point x="171" y="488"/>
      <point x="131" y="471" type="curve" smooth="yes"/>
      <point x="68" y="444"/>
      <point x="33" y="527"/>
      <point x="95" y="553" type="curve" smooth="yes"/>
      <point x="230" y="611"/>
      <point x="363" y="552"/>
      <point x="363" y="464" type="curve" smooth="yes"/>
      <point x="363" y="424"/>
      <point x="337" y="384"/>
      <point x="261" y="338" type="curve" smooth="yes"/>
      <point x="130" y="260" type="line"/>
      <point x="107" y="344" type="line"/>
      <point x="332" y="344" type="line" smooth="yes"/>
      <point x="400" y="344"/>
      <point x="400" y="254"/>
    </contour>
  </outline>
</glyph>
<glyph name="periodcentered" format="2">
  <advance width="260"/>
  <unicode hex="00B7"/>
  <outline>
    <contour>
      <point x="256" y="151" type="curve" smooth="yes"/>
      <point x="168" y="159"/>
      <point x="167" y="261"/>
      <point x="255" y="272" type="curve" smooth="yes"/>
      <point x="322" y="280"/>
      <point x="332" y="190"/>
      <point x="265" y="182" type="curve" smooth="yes"/>
      <point x="263" y="182"/>
      <point x="261" y="241"/>
      <point x="264" y="241" type="curve" smooth="yes"/>
      <point x="331" y="235"/>
      <point x="323" y="145"/>
    </contour>
  </outline>
</glyph>
<glyph name="ordmasculine" format="2">
  <advance width="492"/>
  <unicode hex="00BA"/>
  <outline>
    <contour>
      <point x="246" y="276" type="curve" smooth="yes"/>
      <point x="134" y="276"/>
      <point x="61" y="343"/>
      <point x="61" y="425" type="curve" smooth="yes"/>
      <point x="61" y="507"/>
      <point x="134" y="574"/>
      <point x="246" y="574" type="curve" smooth="yes"/>
      <point x="358" y="574"/>
      <point x="431" y="507"/>
      <point x="431" y="425" type="curve" smooth="yes"/>
      <point x="431" y="343"/>
      <point x="358" y="276"/>
    </contour>
    <contour>
      <point x="246" y="366" type="curve" smooth="yes"/>
      <point x="297" y="366"/>
      <point x="341" y="388"/>
      <point x="341" y="425" type="curve" smooth="yes"/>
      <point x="341" y="462"/>
      <point x="297" y="484"/>
      <point x="246" y="484" type="curve" smooth="yes"/>
      <point x="195" y="484"/>
      <point x="151" y="462"/>
      <point x="151" y="425" type="curve" smooth="yes"/>
      <point x="151" y="388"/>
      <point x="195" y="366"/>
    </contour>
    <contour>
      <point x="386" y="154" type="curve" smooth="yes"/>
      <point x="106" y="154" type="line" smooth="yes"/>
      <point x="38" y="154"/>
      <point x="39" y="244"/>
      <point x="106" y="244" type="curve" smooth="yes"/>
      <point x="386" y="244" type="line" smooth="yes"/>
      <point x="454" y="244"/>
      <point x="454" y="154"/>
    </contour>
  </outline>
</glyph>
<glyph name="guillemetright" format="2">
  <advance width="637"/>
  <unicode hex="00BB"/>
  <outline>
    <contour>
      <point x="334" y="156" type="curve" smooth="yes"/>
      <point x="531" y="295" type="line"/>
      <point x="531" y="221" type="line"/>
      <point x="334" y="361" type="line" smooth="yes"/>
      <point x="279" y="400"/>
      <point x="331" y="474"/>
      <point x="386" y="435" type="curve" smooth="yes"/>
      <point x="583" y="295" type="line" smooth="yes"/>
      <point x="608" y="277"/>
      <point x="608" y="239"/>
      <point x="583" y="221" type="curve" smooth="yes"/>
      <point x="386" y="82" type="line" smooth="yes"/>
      <point x="331" y="43"/>
      <point x="279" y="117"/>
    </contour>
    <contour>
      <point x="74" y="156" type="curve" smooth="yes"/>
      <point x="271" y="295" type="line"/>
      <point x="271" y="221" type="line"/>
      <point x="74" y="361" type="line" smooth="yes"/>
      <point x="19" y="400"/>
      <point x="71" y="474"/>
      <point x="126" y="435" type="curve" smooth="yes"/>
      <point x="323" y="295" type="line" smooth="yes"/>
      <point x="348" y="277"/>
      <point x="348" y="239"/>
      <point x="323" y="221" type="curve" smooth="yes"/>
      <point x="126" y="82" type="line" smooth="yes"/>
      <point x="71" y="43"/>
      <point x="19" y="117"/>
    </contour>
  </outline>
</glyph>
<glyph name="onehalf" format="2">
  <advance width="940"/>
  <unicode hex="00BD"/>
  <outline>
    <contour>
      <point x="193" y="472" type="curve" smooth="yes"/>
      <point x="344" y="494"/>
      <point x="355" y="446"/>
      <point x="355" y="381" type="curve" smooth="yes"/>
      <point x="355" y="312"/>
      <point x="355" y="257"/>
      <point x="355" y="211" type="curve" smooth="yes"/>
      <point x="355" y="144"/>
      <point x="265" y="144"/>
      <point x="265" y="211" type="curve" smooth="yes"/>
      <point x="265" y="279"/>
      <point x="265" y="334"/>
      <point x="265" y="381" type="curve" smooth="yes"/>
      <point x="265" y="393"/>
      <point x="235" y="387"/>
      <point x="207" y="382" type="curve" smooth="yes"/>
      <point x="140" y="373"/>
      <point x="127" y="462"/>
    </contour>
    <contour>
      <point x="766" y="413" type="curve" smooth="yes"/>
      <point x="390" y="-11" type="line" smooth="yes"/>
      <point x="345" y="-61"/>
      <point x="278" y="-2"/>
      <point x="322" y="49" type="curve" smooth="yes"/>
      <point x="698" y="473" type="line" smooth="yes"/>
      <point x="743" y="523"/>
      <point x="810" y="464"/>
    </contour>
    <contour>
      <point x="962" y="-19" type="curve" smooth="yes"/>
      <point x="923" y="-19"/>
      <point x="892" y="-19"/>
      <point x="866" y="-19" type="curve" smooth="yes"/>
      <point x="695" y="-19"/>
      <point x="668" y="49"/>
      <point x="797" y="120" type="curve" smooth="yes"/>
      <point x="817" y="131"/>
      <point x="903" y="182"/>
      <point x="903" y="190" type="curve" smooth="yes"/>
      <point x="903" y="217"/>
      <point x="801" y="214"/>
      <point x="761" y="197" type="curve" smooth="yes"/>
      <point x="698" y="170"/>
      <point x="663" y="253"/>
      <point x="725" y="279" type="curve" smooth="yes"/>
      <point x="860" y="337"/>
      <point x="993" y="278"/>
      <point x="993" y="190" type="curve" smooth="yes"/>
      <point x="993" y="143"/>
      <point x="962" y="109"/>
      <point x="841" y="42" type="curve" smooth="yes"/>
      <point x="834" y="38"/>
      <point x="857" y="71"/>
      <point x="866" y="71" type="curve" smooth="yes"/>
      <point x="905" y="71"/>
      <point x="936" y="71"/>
      <point x="962" y="71" type="curve" smooth="yes"/>
      <point x="1030" y="71"/>
      <point x="1030" y="-19"/>
    </contour>
  </outline>
</glyph>
<glyph name="questiondown" format="2">
  <advance width="511"/>
  <unicode hex="00BF"/>
  <outline>
    <contour>
      <point x="565" y="-75" type="curve" smooth="yes"/>
      <point x="508" y="-92"/>
      <point x="451" y="-99"/>
      <point x="400" y="-99" type="curve" smooth="yes"/>
      <point x="253" y="-99"/>
      <point x="169" y="-38"/>
      <point x="169" y="40" type="curve" smooth="yes"/>
      <point x="169" y="95"/>
      <point x="212" y="148"/>
      <point x="307" y="176" type="curve" smooth="yes"/>
      <point x="350" y="189"/>
      <point x="370" y="196"/>
      <point x="370" y="212" type="curve" smooth="yes"/>
      <point x="370" y="280"/>
      <point x="460" y="280"/>
      <point x="460" y="212" type="curve" smooth="yes"/>
      <point x="460" y="167"/>
      <point x="449" y="124"/>
      <point x="333" y="90" type="curve" smooth="yes"/>
      <point x="300" y="80"/>
      <point x="259" y="59"/>
      <point x="259" y="40" type="curve" smooth="yes"/>
      <point x="259" y="9"/>
      <point x="342" y="-9"/>
      <point x="400" y="-9" type="curve" smooth="yes"/>
      <point x="443" y="-9"/>
      <point x="492" y="-2"/>
      <point x="541" y="11" type="curve" smooth="yes"/>
      <point x="606" y="30"/>
      <point x="630" y="-57"/>
    </contour>
    <contour>
      <point x="459" y="375" type="curve" smooth="yes"/>
      <point x="459" y="363"/>
      <point x="459" y="345"/>
      <point x="459" y="337" type="curve" smooth="yes"/>
      <point x="459" y="270"/>
      <point x="369" y="270"/>
      <point x="369" y="337" type="curve" smooth="yes"/>
      <point x="369" y="349"/>
      <point x="369" y="367"/>
      <point x="369" y="375" type="curve" smooth="yes"/>
      <point x="369" y="443"/>
      <point x="459" y="443"/>
    </contour>
  </outline>
</glyph>
<glyph name="multiply" format="2">
  <advance width="517"/>
  <unicode hex="00D7"/>
  <outline>
    <contour>
      <point x="261" y="347" type="curve" smooth="yes"/>
      <point x="306" y="316"/>
      <point x="405" y="245"/>
      <point x="549" y="144" type="curve" smooth="yes"/>
      <point x="604" y="105"/>
      <point x="552" y="31"/>
      <point x="497" y="70" type="curve" smooth="yes"/>
      <point x="357" y="169"/>
      <point x="256" y="241"/>
      <point x="209" y="273" type="curve" smooth="yes"/>
      <point x="154" y="311"/>
      <point x="205" y="385"/>
    </contour>
    <contour>
      <point x="564" y="292" type="curve" smooth="yes"/>
      <point x="514" y="178"/>
      <point x="406" y="99"/>
      <point x="245" y="63" type="curve" smooth="yes"/>
      <point x="179" y="49"/>
      <point x="159" y="136"/>
      <point x="225" y="151" type="curve" smooth="yes"/>
      <point x="354" y="179"/>
      <point x="442" y="238"/>
      <point x="482" y="328" type="curve" smooth="yes"/>
      <point x="509" y="390"/>
      <point x="591" y="354"/>
    </contour>
  </outline>
</glyph>
<glyph name="germandbls" format="2">
  <advance width="594"/>
  <unicode hex="00DF"/>
  <outline>
    <contour>
      <point x="93" y="102" type="curve" smooth="yes"/>
      <point x="93" y="455" type="line" smooth="yes"/>
      <point x="93" y="543"/>
      <point x="165" y="608"/>
      <point x="290" y="608" type="curve" smooth="yes"/>
      <point x="406" y="608"/>
      <point x="483" y="542"/>
      <point x="483" y="457" type="curve" smooth="yes"/>
      <point x="483" y="371"/>
      <point x="394" y="318"/>
      <point x="266" y="301" type="curve"/>
      <point x="259" y="391" type="line"/>
      <point x="446" y="396"/>
      <point x="536" y="324"/>
      <point x="536" y="225" type="curve" smooth="yes"/>
      <point x="536" y="122"/>
      <point x="434" y="32"/>
      <point x="254" y="56" type="curve" smooth="yes"/>
      <point x="187" y="65"/>
      <point x="199" y="154"/>
      <point x="266" y="146" type="curve" smooth="yes"/>
      <point x="369" y="132"/>
      <point x="446" y="166"/>
      <point x="446" y="225" type="curve" smooth="yes"/>
      <point x="446" y="280"/>
      <point x="365" y="304"/>
      <point x="261" y="301" type="curve" smooth="yes"/>
      <point x="204" y="299"/>
      <point x="198" y="383"/>
      <point x="254" y="391" type="curve" smooth="yes"/>
      <point x="308" y="397"/>
      <point x="393" y="421"/>
      <point x="393" y="457" type="curve" smooth="yes"/>
      <point x="393" y="496"/>
      <point x="344" y="518"/>
      <point x="290" y="518" type="curve" smooth="yes"/>
      <point x="229" y="518"/>
      <point x="183" y="498"/>
      <point x="183" y="455" type="curve" smooth="yes"/>
      <point x="183" y="102" type="line" smooth="yes"/>
      <point x="183" y="35"/>
      <point x="93" y="35"/>
    </contour>
  </outline>
</glyph>
<glyph name="oe" format="2">
  <advance width="957"/>
  <unicode hex="0153"/>
  <outline>
    <contour>
      <point x="676" y="232" type="curve" smooth="yes"/>
      <point x="779" y="212"/>
      <point x="803" y="212"/>
      <point x="889" y="212" type="curve" smooth="yes"/>
      <point x="895" y="212"/>
      <point x="941" y="209"/>
      <point x="939" y="212" type="curve" smooth="yes"/>
      <point x="921" y="252"/>
      <point x="872" y="273"/>
      <point x="811" y="273" type="curve" smooth="yes"/>
      <point x="726" y="273"/>
      <point x="658" y="233"/>
      <point x="658" y="163" type="curve" smooth="yes"/>
      <point x="658" y="54"/>
      <point x="557" y="-30"/>
      <point x="408" y="-30" type="curve" smooth="yes"/>
      <point x="260" y="-30"/>
      <point x="159" y="57"/>
      <point x="159" y="167" type="curve" smooth="yes"/>
      <point x="159" y="278"/>
      <point x="269" y="352"/>
      <point x="392" y="370" type="curve" smooth="yes"/>
      <point x="521" y="389"/>
      <point x="558" y="356"/>
      <point x="558" y="241" type="curve" smooth="yes"/>
      <point x="558" y="166"/>
      <point x="691" y="91"/>
      <point x="805" y="74" type="curve" smooth="yes"/>
      <point x="860" y="66"/>
      <point x="915" y="71"/>
      <point x="964" y="89" type="curve" smooth="yes"/>
      <point x="1027" y="113"/>
      <point x="1059" y="29"/>
      <point x="996" y="5" type="curve" smooth="yes"/>
      <point x="933" y="-19"/>
      <point x="862" y="-26"/>
      <point x="791" y="-16" type="curve" smooth="yes"/>
      <point x="613" y="11"/>
      <point x="468" y="124"/>
      <point x="468" y="241" type="curve" smooth="yes"/>
      <point x="468" y="295"/>
      <point x="466" y="290"/>
      <point x="404" y="280" type="curve" smooth="yes"/>
      <point x="334" y="270"/>
      <point x="249" y="231"/>
      <point x="249" y="167" type="curve" smooth="yes"/>
      <point x="249" y="102"/>
      <point x="321" y="60"/>
      <point x="408" y="60" type="curve" smooth="yes"/>
      <point x="495" y="60"/>
      <point x="568" y="99"/>
      <point x="568" y="163" type="curve" smooth="yes"/>
      <point x="568" y="280"/>
      <point x="669" y="363"/>
      <point x="811" y="363" type="curve" smooth="yes"/>
      <point x="915" y="363"/>
      <point x="989" y="318"/>
      <point x="1021" y="250" type="curve" smooth="yes"/>
      <point x="1053" y="181"/>
      <point x="1011" y="122"/>
      <point x="889" y="122" type="curve" smooth="yes"/>
      <point x="797" y="122"/>
      <point x="767" y="122"/>
      <point x="658" y="144" type="curve" smooth="yes"/>
      <point x="592" y="157"/>
      <point x="610" y="245"/>
    </contour>
  </outline>
</glyph>
<glyph name="endash" format="2">
  <advance width="555"/>
  <unicode hex="2013"/>
  <outline>
    <contour>
      <point x="568" y="195" type="curve" smooth="yes"/>
      <point x="538" y="170"/>
      <point x="491" y="164"/>
      <point x="399" y="164" type="curve" smooth="yes"/>
      <point x="326" y="164"/>
      <point x="261" y="167"/>
      <point x="184" y="186" type="curve" smooth="yes"/>
      <point x="119" y="202"/>
      <point x="140" y="290"/>
      <point x="206" y="274" type="curve" smooth="yes"/>
      <point x="275" y="257"/>
      <point x="334" y="254"/>
      <point x="399" y="254" type="curve" smooth="yes"/>
      <point x="434" y="254"/>
      <point x="500" y="256"/>
      <point x="512" y="265" type="curve" smooth="yes"/>
      <point x="564" y="308"/>
      <point x="621" y="238"/>
    </contour>
  </outline>
</glyph>
<glyph name="emdash" format="2">
  <advance width="805"/>
  <unicode hex="2014"/>
  <outline>
    <contour>
      <point x="813" y="197" type="curve" smooth="yes"/>
      <point x="782" y="174"/>
      <point x="741" y="164"/>
      <point x="658" y="164" type="curve" smooth="yes"/>
      <point x="557" y="164"/>
      <point x="461" y="164"/>
      <point x="393" y="164" type="curve" smooth="yes"/>
      <point x="322" y="164"/>
      <point x="254" y="170"/>
      <point x="180" y="189" type="curve" smooth="yes"/>
      <point x="114" y="206"/>
      <point x="137" y="293"/>
      <point x="202" y="277" type="curve" smooth="yes"/>
      <point x="268" y="260"/>
      <point x="330" y="254"/>
      <point x="393" y="254" type="curve" smooth="yes"/>
      <point x="494" y="254"/>
      <point x="590" y="254"/>
      <point x="658" y="254" type="curve" smooth="yes"/>
      <point x="702" y="254"/>
      <point x="743" y="257"/>
      <point x="759" y="269" type="curve" smooth="yes"/>
      <point x="813" y="310"/>
      <point x="867" y="237"/>
    </contour>
  </outline>
</glyph>
<glyph name="quoteleft" format="2">
  <advance width="274"/>
  <unicode hex="2018"/>
  <outline>
    <contour>
      <point x="314" y="418" type="curve" smooth="yes"/>
      <point x="298" y="400"/>
      <point x="273" y="357"/>
      <point x="290" y="347" type="curve" smooth="yes"/>
      <point x="346" y="310"/>
      <point x="297" y="234"/>
      <point x="240" y="271" type="curve" smooth="yes"/>
      <point x="175" y="314"/>
      <point x="182" y="400"/>
      <point x="244" y="476" type="curve" smooth="yes"/>
      <point x="287" y="528"/>
      <point x="357" y="471"/>
    </contour>
  </outline>
</glyph>
<glyph name="quoteright" format="2">
  <advance width="279"/>
  <unicode hex="2019"/>
  <outline>
    <contour>
      <point x="200" y="335" type="curve" smooth="yes"/>
      <point x="215" y="352"/>
      <point x="241" y="396"/>
      <point x="225" y="406" type="curve" smooth="yes"/>
      <point x="168" y="442"/>
      <point x="216" y="518"/>
      <point x="273" y="482" type="curve" smooth="yes"/>
      <point x="338" y="441"/>
      <point x="332" y="354"/>
      <point x="270" y="277" type="curve" smooth="yes"/>
      <point x="227" y="225"/>
      <point x="157" y="282"/>
    </contour>
  </outline>
</glyph>
<glyph name="ellipsis" format="2">
  <advance width="780"/>
  <unicode hex="2026"/>
  <outline>
    <contour>
      <point x="255" y="-26" type="curve" smooth="yes"/>
      <point x="167" y="-15"/>
      <point x="168" y="87"/>
      <point x="256" y="95" type="curve" smooth="yes"/>
      <point x="323" y="101"/>
      <point x="331" y="11"/>
      <point x="264" y="5" type="curve" smooth="yes"/>
      <point x="261" y="5"/>
      <point x="263" y="64"/>
      <point x="265" y="64" type="curve" smooth="yes"/>
      <point x="332" y="56"/>
      <point x="322" y="-34"/>
    </contour>
    <contour>
      <point x="515" y="-26" type="curve" smooth="yes"/>
      <point x="427" y="-15"/>
      <point x="428" y="87"/>
      <point x="516" y="95" type="curve" smooth="yes"/>
      <point x="583" y="101"/>
      <point x="591" y="11"/>
      <point x="524" y="5" type="curve" smooth="yes"/>
      <point x="521" y="5"/>
      <point x="523" y="64"/>
      <point x="525" y="64" type="curve" smooth="yes"/>
      <point x="592" y="56"/>
      <point x="582" y="-34"/>
    </contour>
    <contour>
      <point x="775" y="-26" type="curve" smooth="yes"/>
      <point x="687" y="-15"/>
      <point x="688" y="87"/>
      <point x="776" y="95" type="curve" smooth="yes"/>
      <point x="843" y="101"/>
      <point x="851" y="11"/>
      <point x="784" y="5" type="curve" smooth="yes"/>
      <point x="781" y="5"/>
      <point x="783" y="64"/>
      <point x="785" y="64" type="curve" smooth="yes"/>
      <point x="852" y="56"/>
      <point x="842" y="-34"/>
    </contour>
  </outline>
</glyph>
<glyph name="fraction" format="2">
  <advance width="568"/>
  <unicode hex="2044"/>
  <outline>
    <contour>
      <point x="506" y="496" type="curve" smooth="yes"/>
      <point x="130" y="72" type="line" smooth="yes"/>
      <point x="85" y="22"/>
      <point x="18" y="81"/>
      <point x="62" y="132" type="curve" smooth="yes"/>
      <point x="438" y="556" type="line" smooth="yes"/>
      <point x="483" y="606"/>
      <point x="550" y="547"/>
    </contour>
  </outline>
</glyph>
<glyph name="minus" format="2">
  <advance width="476"/>
  <unicode hex="2212"/>
  <outline>
    <contour>
      <point x="541" y="172" type="curve" smooth="yes"/>
      <point x="479" y="130"/>
      <point x="368" y="124"/>
      <point x="190" y="165" type="curve" smooth="yes"/>
      <point x="124" y="181"/>
      <point x="145" y="268"/>
      <point x="210" y="253" type="curve" smooth="yes"/>
      <point x="338" y="223"/>
      <point x="446" y="217"/>
      <point x="491" y="246" type="curve" smooth="yes"/>
      <point x="547" y="284"/>
      <point x="597" y="209"/>
    </contour>
  </outline>
</glyph>
<glyph name="H" format="2">
  <advance width="688"/>
  <outline>
    <contour>
      <point x="184.93681551339216" y="438.08998824104" type="curve" smooth="yes"/>
      <point x="184.93654776255968" y="405.87390349036116"/>
      <point x="184.93930588543355" y="385.64223001720086"/>
      <point x="184.9453302791637" y="351.1249963557591" type="curve" smooth="yes"/>
      <point x="184.9969170863504" y="55.55436181978224" type="line" smooth="yes"/>
      <point x="184.99743832503896" y="52.567884107009746"/>
      <point x="85.01607353905254" y="46.51008551912068"/>
      <point x="85.01641792890041" y="48.483294007916754" type="curve" smooth="yes"/>
      <point x="85.02110561623037" y="75.34176411265018"/>
      <point x="85.02246215258077" y="121.3152205484986"/>
      <point x="85.01543062158584" y="161.6029257055988" type="curve" smooth="yes"/>
      <point x="84.99667178260884" y="269.083156445954" type="line" smooth="yes"/>
      <point x="84.98706436567299" y="324.12960096992043"/>
      <point x="132.29481586352856" y="373.53910524340097"/>
      <point x="234.9871666650754" y="373.53910524340097" type="curve" smooth="yes"/>
      <point x="347.08502421496615" y="373.53910524340097"/>
      <point x="386.9469420422439" y="373.539105243401"/>
      <point x="462.9871631924368" y="373.53910524340097" type="curve" smooth="yes"/>
      <point x="467.43694026435116" y="373.5391052434009"/>
      <point x="512.9797386718964" y="366.065384676268"/>
      <point x="512.9792639723767" y="368.7852125932572" type="curve" smooth="yes"/>
      <point x="512.9623563346145" y="465.65884161581425" type="line" smooth="yes"/>
      <point x="512.9618257880923" y="468.6986492877435"/>
      <point x="612.9430764684985" y="473.99601113528934"/>
      <point x="612.9427320786501" y="472.0228026464931" type="curve" smooth="yes"/>
      <point x="612.9380443913202" y="445.16433254176"/>
      <point x="612.936934628577" y="399.19118104223645"/>
      <point x="612.9438427993791" y="359.6102777299977" type="curve" smooth="yes"/>
      <point x="612.9950593663228" y="66.16096353758041" type="line" smooth="yes"/>
      <point x="613.0008313359554" y="33.09001342721575"/>
      <point x="613.0046816180525" y="16.14142758347091"/>
      <point x="613.0103307798205" y="14.734153110689451" type="curve" smooth="yes"/>
      <point x="613.3113976485351" y="-60.26524261181329"/>
      <point x="513.3122033518648" y="-60.666665103432834"/>
      <point x="513.0111364831502" y="14.332730619069903" type="curve" smooth="yes"/>
      <point x="513.0054300004639" y="15.754284425360803"/>
      <point x="513.0008914260676" y="32.73699579757831"/>
      <point x="512.99506088941" y="66.14351024541486" type="curve" smooth="yes"/>
      <point x="512.9438443224662" y="359.5928244378321" type="line" smooth="yes"/>
      <point x="512.936928579034" y="399.2171157256186"/>
      <point x="512.9380407758367" y="445.1523439933748"/>
      <point x="512.9427336017372" y="472.0402559386587" type="curve" smooth="yes"/>
      <point x="512.9570813086826" y="554.2465617228207"/>
      <point x="612.940251587314" y="592.318441656553"/>
      <point x="612.9623548115273" y="465.6762949079798" type="curve" smooth="yes"/>
      <point x="612.9792624492895" y="368.80266588542275" type="line" smooth="yes"/>
      <point x="612.9900615794746" y="306.92820736800223"/>
      <point x="564.2169303876748" y="273.5391052434009"/>
      <point x="462.9871631924368" y="273.53910524340097" type="curve" smooth="yes"/>
      <point x="349.6708506691779" y="273.539105243401"/>
      <point x="310.20975102870716" y="273.53910524340097"/>
      <point x="234.9871666650754" y="273.53910524340097" type="curve" smooth="yes"/>
      <point x="230.31112974204692" y="273.53910524340097"/>
      <point x="184.99623279133667" y="271.60711781848204"/>
      <point x="184.99667025952178" y="269.10060973811954" type="curve" smooth="yes"/>
      <point x="185.01542909849877" y="161.6203789977643" type="line" smooth="yes"/>
      <point x="185.02246833734952" y="121.28851107983868"/>
      <point x="185.02110923171384" y="75.35375266103493"/>
      <point x="185.01641640581335" y="48.4658407157512" type="curve" smooth="yes"/>
      <point x="185.00196753932028" y="-34.320066584687886"/>
      <point x="85.0187871641297" y="-69.760680900075"/>
      <point x="84.99691860943747" y="55.53690852761667" type="curve" smooth="yes"/>
      <point x="84.94533180225076" y="351.10754306359354" type="line" smooth="yes"/>
      <point x="84.93977728567954" y="382.9325789019314"/>
      <point x="84.93656864944269" y="408.38745256775474"/>
      <point x="84.93681551684587" y="438.0908193502034" type="curve" smooth="yes"/>
      <point x="84.93743884871854" y="513.0908193476131"/>
      <point x="184.93743884526484" y="513.0899882384497"/>
    </contour>
  </outline>
</glyph>
<glyph name="R" format="2">
  <advance width="641"/>
  <outline>
    <contour>
      <point x="148.01110983461422" y="-33.34523779156069" type="curve" smooth="yes"/>
      <point x="147.99569177716316" y="-33.34523779156069"/>
      <point x="98.01640530589869" y="-56.11682365296554"/>
      <point x="97.99482002546722" y="67.55772380778798" type="curve" smooth="yes"/>
      <point x="97.94446735242371" y="356.05729053189935" type="line" smooth="yes"/>
      <point x="97.93369542853884" y="417.77586842960665"/>
      <point x="144.30223680461012" y="469.7056274847714"/>
      <point x="237.93335801281282" y="469.7056274847714" type="curve" smooth="yes"/>
      <point x="327.9333566420344" y="469.7056274847714" type="line" smooth="yes"/>
      <point x="464.7823259910068" y="469.7056274847714"/>
      <point x="545.9372008581014" y="397.6695943122432"/>
      <point x="545.9535931216534" y="303.74884201626037" type="curve" smooth="yes"/>
      <point x="545.9703869862752" y="207.52708507294025"/>
      <point x="458.17478166839953" y="136.36038969321072"/>
      <point x="359.97408258137295" y="136.36038969321072" type="curve" smooth="yes"/>
      <point x="302.97408344953254" y="136.36038969321072" type="line" smooth="yes"/>
      <point x="225.86904299605462" y="136.36038969321072"/>
      <point x="187.97505531208165" y="191.92744295710742"/>
      <point x="187.9834646205712" y="240.10923170947106" type="curve" smooth="yes"/>
      <point x="187.9916608215269" y="287.07000422796693"/>
      <point x="226.01549659660455" y="342.42640687119285"/>
      <point x="304.9925954312192" y="342.42640687119285" type="curve" smooth="yes"/>
      <point x="308.9925953702957" y="342.42640687119285" type="line" smooth="yes"/>
      <point x="385.37818280689146" y="342.42640687119285"/>
      <point x="424.71042172788293" y="299.7790037224816"/>
      <point x="459.7737711790993" y="219.89022595068275" type="curve" smooth="yes"/>
      <point x="483.9488920622398" y="164.80932552139998"/>
      <point x="513.4148508514718" y="102.08994613138002"/>
      <point x="535.788900424931" y="76.26507311270606" type="curve" smooth="yes"/>
      <point x="537.509404689356" y="74.2792098021336"/>
      <point x="529.8849222302467" y="65.40722839891403"/>
      <point x="530.6394288924739" y="65.56721827638398" type="curve" smooth="yes"/>
      <point x="604.0081129943909" y="81.12473071099602"/>
      <point x="624.7514629072069" y="-16.700181424893337"/>
      <point x="551.38277880529" y="-32.25769385950537" type="curve" smooth="yes"/>
      <point x="532.6035440227229" y="-36.23974944927778"/>
      <point x="503.0314763908244" y="-38.642423466789516"/>
      <point x="460.2091195534807" y="10.784566674350195" type="curve" smooth="yes"/>
      <point x="430.42367015272384" y="45.16392415513198"/>
      <point x="400.3883709445108" y="106.37417250281904"/>
      <point x="368.20524569229303" y="179.7006111208275" type="curve" smooth="yes"/>
      <point x="353.0794689836109" y="214.16337161057967"/>
      <point x="341.94413472437117" y="242.42640687119285"/>
      <point x="308.9925953702957" y="242.42640687119285" type="curve" smooth="yes"/>
      <point x="304.9925954312192" y="242.42640687119285" type="line" smooth="yes"/>
      <point x="301.6741176148763" y="242.42640687119285"/>
      <point x="287.9838074873319" y="242.06498690610172"/>
      <point x="287.98346309748416" y="240.09177841730562" type="curve" smooth="yes"/>
      <point x="287.98307172252066" y="237.84936504415626"/>
      <point x="299.38556217775596" y="236.36038969321072"/>
      <point x="302.97408344953254" y="236.36038969321072" type="curve" smooth="yes"/>
      <point x="359.97408258137295" y="236.36038969321072" type="line" smooth="yes"/>
      <point x="401.3694538949303" y="236.36038969321072"/>
      <point x="445.96067390454493" y="263.1702176311915"/>
      <point x="445.95359464474046" y="303.7313887240949" type="curve" smooth="yes"/>
      <point x="445.94587512888114" y="347.9609568109238"/>
      <point x="392.3788669202948" y="369.7056274847714"/>
      <point x="327.9333566420344" y="369.7056274847714" type="curve" smooth="yes"/>
      <point x="237.93335801281282" y="369.7056274847714" type="line" smooth="yes"/>
      <point x="221.1960180172661" y="369.7056274847714"/>
      <point x="197.942540258542" y="367.10745184876663"/>
      <point x="197.94446582933665" y="356.0747438240649" type="curve" smooth="yes"/>
      <point x="197.99481850238016" y="67.5751770999535" type="line" smooth="yes"/>
      <point x="197.99533974106873" y="64.58869938718107"/>
      <point x="148.0107375212653" y="66.65476220843931"/>
      <point x="148.01110983461422" y="66.65476220843931" type="curve" smooth="yes"/>
      <point x="223.01110983461422" y="66.65476220843928"/>
      <point x="223.01110983461422" y="-33.34523779156072"/>
    </contour>
  </outline>
</glyph>
<glyph name="grave.cap" format="2">
  <advance width="408"/>
  <outline>
    <contour>
      <point x="337" y="512" type="curve" smooth="yes"/>
      <point x="246" y="587" type="line" smooth="yes"/>
      <point x="194" y="630"/>
      <point x="252" y="700"/>
      <point x="304" y="657" type="curve" smooth="yes"/>
      <point x="395" y="582" type="line" smooth="yes"/>
      <point x="447" y="539"/>
      <point x="389" y="469"/>
    </contour>
  </outline>
</glyph>
<glyph name="h" format="2">
  <advance width="600"/>
  <outline>
    <contour>
      <point x="537.0123123676738" y="23.674716833463407" type="curve" smooth="yes"/>
      <point x="536.9886927406732" y="0.5695104094197119"/>
      <point x="437.0262525886293" y="-112.56897024732496"/>
      <point x="436.99456772314045" y="68.97193737016106" type="curve" smooth="yes"/>
      <point x="436.9732172024627" y="191.3014105154338" type="line" smooth="yes"/>
      <point x="436.96299997497016" y="249.84181217782992"/>
      <point x="378.2756107467522" y="297.0780345929125"/>
      <point x="313.48717537556985" y="312.3494437222332" type="curve" smooth="yes"/>
      <point x="235.01763559210139" y="330.84565279654385"/>
      <point x="166.9857461246768" y="331.6890232728476"/>
      <point x="166.99728693059075" y="265.56507583218684" type="curve" smooth="yes"/>
      <point x="167.01431798176722" y="167.98434002844326" type="line" smooth="yes"/>
      <point x="167.02209430496697" y="123.4292898547702"/>
      <point x="167.02147671042655" y="74.63309240505122"/>
      <point x="167.016909663468" y="48.465840715751185" type="curve" smooth="yes"/>
      <point x="167.00287587031676" y="-31.941871505565224"/>
      <point x="67.01944335485564" y="-73.5226457618164"/>
      <point x="66.99580749270595" y="61.90086955829561" type="curve" smooth="yes"/>
      <point x="66.94125876357549" y="374.4420668427496" type="line" smooth="yes"/>
      <point x="66.93237153706151" y="425.36212418409025"/>
      <point x="66.9300271935962" y="451.5213867463736"/>
      <point x="66.93138496431362" y="487.5897606964899" type="curve" smooth="yes"/>
      <point x="66.93420829102853" y="562.5897606433488"/>
      <point x="166.93420822017364" y="562.585996207729"/>
      <point x="166.93138489345876" y="487.5859962608701" type="curve" smooth="yes"/>
      <point x="166.9298361790521" y="446.4453164325759"/>
      <point x="166.93112020073494" y="432.5404798925064"/>
      <point x="166.94125724048843" y="374.4595201349152" type="curve" smooth="yes"/>
      <point x="166.99580596961889" y="61.91832285046114" type="line" smooth="yes"/>
      <point x="166.99640167097724" y="58.505205464435456"/>
      <point x="67.01655748887349" y="46.456755559963916"/>
      <point x="67.01691118655506" y="48.48329400791671" type="curve" smooth="yes"/>
      <point x="67.02222015594346" y="78.9014481141297"/>
      <point x="67.02335910138042" y="116.17381352840154"/>
      <point x="67.01431950485429" y="167.9668867362777" type="curve" smooth="yes"/>
      <point x="66.99728845367781" y="265.5476225400213" type="line" smooth="yes"/>
      <point x="66.9740961646109" y="398.4296512927974"/>
      <point x="178.73803457892097" y="446.85188382286753"/>
      <point x="336.4296432216334" y="409.6820855703427" type="curve" smooth="yes"/>
      <point x="451.11655631147033" y="382.6490084240966"/>
      <point x="536.9551293916801" y="294.9456595348758"/>
      <point x="536.9732156793757" y="191.31886380759934" type="curve" smooth="yes"/>
      <point x="536.9945662000534" y="68.98939066232664" type="line" smooth="yes"/>
      <point x="536.9950781309085" y="66.05624290871083"/>
      <point x="437.01198299766224" y="23.4036334930496"/>
      <point x="437.01236461884486" y="23.77694320714616" type="curve" smooth="yes"/>
      <point x="437.0890343991069" y="98.77690401876788"/>
      <point x="537.0889821479358" y="98.67467764508513"/>
    </contour>
  </outline>
</glyph>
<glyph name="n" format="2">
  <advance width="600"/>
  <outline>
    <contour>
      <point x="437.01041021087485" y="12.344053743912742" type="curve" smooth="yes"/>
      <point x="437.00559148139524" y="15.883705836183287"/>
      <point x="437.001981153109" y="26.49611226291418"/>
      <point x="436.99456772314045" y="68.97193737016109" type="curve" smooth="yes"/>
      <point x="436.9732172024627" y="191.3014105154338" type="line" smooth="yes"/>
      <point x="436.96401905813343" y="244.0028957249956"/>
      <point x="381.3003705143567" y="256.6610793067971"/>
      <point x="324.9324399131927" y="268.18909198928566" type="curve" smooth="yes"/>
      <point x="269.0168751570939" y="279.6245896700097"/>
      <point x="166.98826446183799" y="323.3418256085756"/>
      <point x="166.99728708247756" y="265.564157237886" type="curve" smooth="yes"/>
      <point x="167.01345422782435" y="163.03374998743422" type="line" smooth="yes"/>
      <point x="167.02098367395212" y="115.64986882127225"/>
      <point x="167.02036594912315" y="68.26889889948593"/>
      <point x="167.01604576956774" y="43.51609324744538" type="curve" smooth="yes"/>
      <point x="167.0030384981915" y="-31.01008241544307"/>
      <point x="67.01990920143268" y="-76.19175005235081"/>
      <point x="66.99580749270595" y="61.90086955829561" type="curve" smooth="yes"/>
      <point x="66.96223904401029" y="254.23391404103654" type="line" smooth="yes"/>
      <point x="66.95643766003589" y="287.4733959166338"/>
      <point x="66.95495691176204" y="310.0990978206564"/>
      <point x="66.95483347806046" y="339.0952415844754" type="curve" smooth="yes"/>
      <point x="66.95451421051601" y="414.0952415837958"/>
      <point x="166.95451420960993" y="414.0956672738551"/>
      <point x="166.95483347715438" y="339.09566727453466" type="curve" smooth="yes"/>
      <point x="166.95496788743648" y="307.52098536392725"/>
      <point x="166.95592023766224" y="290.4467344014594"/>
      <point x="166.96223752092322" y="254.2513673332021" type="curve" smooth="yes"/>
      <point x="166.99580596961889" y="61.91832285046114" type="line" smooth="yes"/>
      <point x="166.99639236314349" y="58.55853542359213"/>
      <point x="67.01573082630813" y="41.72032792828472"/>
      <point x="67.0160472926548" y="43.533546539610825" type="curve" smooth="yes"/>
      <point x="67.02131037183112" y="73.68876909727504"/>
      <point x="67.02262827580127" y="105.29220900540227"/>
      <point x="67.01345547099663" y="163.01798184067505" type="curve" smooth="yes"/>
      <point x="66.997288301791" y="265.54854113432214" type="line" smooth="yes"/>
      <point x="66.97144173634311" y="431.06079601211724"/>
      <point x="184.79107786332506" y="398.91978743092017"/>
      <point x="344.9690751160171" y="366.16119643615843" type="curve" smooth="yes"/>
      <point x="459.38104826467924" y="342.76238325604345"/>
      <point x="536.9545458820139" y="298.2889236693766"/>
      <point x="536.9732156793757" y="191.31886380759934" type="curve" smooth="yes"/>
      <point x="536.9945662000534" y="68.98939066232661" type="line" smooth="yes"/>
      <point x="537.0019641108214" y="26.602484025988073"/>
      <point x="537.0055089043866" y="16.012431518422193"/>
      <point x="537.0103175463855" y="12.48018929872735" type="curve" smooth="yes"/>
      <point x="537.1124192124964" y="-62.51974120290562"/>
      <point x="437.1125118769858" y="-62.655876757720236"/>
    </contour>
  </outline>
</glyph>
<glyph name="period" format="2">
  <advance width="257"/>
  <outline>
    <contour>
      <point x="176.55617469791184" y="60.179998967790205" type="curve" smooth="yes"/>
      <point x="176.33497194993421" y="58.53896874354903"/>
      <point x="166.82784658775114" y="21.304952541442443"/>
      <point x="169.1489410818515" y="18.179180685744978" type="curve" smooth="yes"/>
      <point x="213.86197566900285" y="-42.03497494238127"/>
      <point x="133.57643483150122" y="-101.65235439191642"/>
      <point x="88.86340024434986" y="-41.43819876379017" type="curve" smooth="yes"/>
      <point x="53.12131227568826" y="6.694961226151872"/>
      <point x="74.04620568885946" y="48.26877938285859"/>
      <point x="77.45246428678334" y="73.53868837757818" type="curve" smooth="yes"/>
      <point x="87.47148134412427" y="147.86647118592458"/>
      <point x="186.57519175525277" y="134.5077817761366"/>
    </contour>
  </outline>
</glyph>
<glyph name="tilde.cap" format="2">
  <advance width="565"/>
  <outline>
    <contour>
      <point x="597" y="622" type="curve" smooth="yes"/>
      <point x="597" y="559"/>
      <point x="553" y="502"/>
      <point x="474" y="502" type="curve" smooth="yes"/>
      <point x="377" y="502"/>
      <point x="376" y="577"/>
      <point x="327" y="577" type="curve" smooth="yes"/>
      <point x="304" y="577"/>
      <point x="296" y="566"/>
      <point x="296" y="547" type="curve" smooth="yes"/>
      <point x="296" y="480"/>
      <point x="206" y="480"/>
      <point x="206" y="547" type="curve" smooth="yes"/>
      <point x="206" y="610"/>
      <point x="250" y="667"/>
      <point x="327" y="667" type="curve" smooth="yes"/>
      <point x="423" y="667"/>
      <point x="425" y="592"/>
      <point x="474" y="592" type="curve" smooth="yes"/>
      <point x="497" y="592"/>
      <point x="507" y="603"/>
      <point x="507" y="622" type="curve" smooth="yes"/>
      <point x="507" y="690"/>
      <point x="597" y="690"/>
    </contour>
  </outline>
</glyph>
<glyph name="u.alt" format="2">
  <advance width="560"/>
  <outline>
    <contour>
      <point x="249" y="341" type="curve" smooth="yes"/>
      <point x="266" y="296"/>
      <point x="267" y="264"/>
      <point x="267" y="231" type="curve" smooth="yes"/>
      <point x="267" y="192"/>
      <point x="267" y="162"/>
      <point x="267" y="137" type="curve" smooth="yes"/>
      <point x="267" y="83"/>
      <point x="314" y="67"/>
      <point x="390" y="67" type="curve" smooth="yes"/>
      <point x="463" y="67"/>
      <point x="533" y="85"/>
      <point x="533" y="137" type="curve" smooth="yes"/>
      <point x="533" y="176"/>
      <point x="533" y="232"/>
      <point x="533" y="258" type="curve" smooth="yes"/>
      <point x="533" y="264"/>
      <point x="498" y="355"/>
      <point x="499" y="348" type="curve" smooth="yes"/>
      <point x="511" y="288"/>
      <point x="509" y="261"/>
      <point x="488" y="235" type="curve" smooth="yes"/>
      <point x="445" y="182"/>
      <point x="376" y="239"/>
      <point x="418" y="291" type="curve" smooth="yes"/>
      <point x="419" y="293"/>
      <point x="411" y="329"/>
      <point x="411" y="332" type="curve" smooth="yes"/>
      <point x="381" y="493"/>
      <point x="623" y="402"/>
      <point x="623" y="258" type="curve" smooth="yes"/>
      <point x="623" y="219"/>
      <point x="623" y="163"/>
      <point x="623" y="137" type="curve" smooth="yes"/>
      <point x="623" y="36"/>
      <point x="532" y="-23"/>
      <point x="390" y="-23" type="curve" smooth="yes"/>
      <point x="249" y="-23"/>
      <point x="177" y="37"/>
      <point x="177" y="137" type="curve" smooth="yes"/>
      <point x="177" y="175"/>
      <point x="177" y="205"/>
      <point x="177" y="231" type="curve" smooth="yes"/>
      <point x="177" y="254"/>
      <point x="177" y="276"/>
      <point x="165" y="309" type="curve" smooth="yes"/>
      <point x="141" y="372"/>
      <point x="225" y="404"/>
    </contour>
  </outline>
</glyph>
